<svg width="1440" height="412" viewBox="0 0 1440 412" fill="none" xmlns="http://www.w3.org/2000/svg">
<path d="M560 20.4636L-24.5 0L-89 412L788 391.536L1501 344.698L1459 64.1192L1016 20.4636H560Z" fill="#E7E6F2"/>
<path d="M226.199 209.141C226.199 209.757 224.595 210.064 221.387 210.064C218.178 210.064 216.574 209.771 216.574 209.184C216.574 208.811 216.732 208.475 217.047 208.174C217.906 207.357 218.393 206.763 218.508 206.391C218.637 206.018 218.701 204.342 218.701 201.363C218.701 198.384 218.379 196.694 217.734 196.293C217.09 195.878 214.999 195.67 211.461 195.67C207.923 195.67 205.789 195.928 205.059 196.443C204.629 196.744 204.414 198.456 204.414 201.578C204.414 204.701 204.493 206.462 204.65 206.863C204.808 207.264 205.152 207.744 205.682 208.303C206.226 208.861 206.498 209.248 206.498 209.463C206.498 209.907 205.145 210.129 202.438 210.129L201.406 210.107H200.375C197.797 210.107 196.508 209.749 196.508 209.033C196.508 208.689 196.938 208.296 197.797 207.852C198.671 207.408 199.215 206.849 199.43 206.176C199.645 205.488 199.752 201.929 199.752 195.498C199.752 189.067 199.652 185.357 199.451 184.369C199.265 183.367 198.857 182.686 198.227 182.328C197.124 181.684 196.572 181.268 196.572 181.082C196.572 180.495 198.671 180.201 202.867 180.201C205.302 180.201 206.52 180.459 206.52 180.975C206.52 181.347 206.348 181.669 206.004 181.941C205.159 182.629 204.672 183.195 204.543 183.639C204.414 184.083 204.35 185.608 204.35 188.215C204.35 190.807 204.65 192.297 205.252 192.684C205.868 193.07 207.973 193.264 211.568 193.264C215.178 193.264 217.219 193.092 217.691 192.748C218.178 192.404 218.422 191.28 218.422 189.375L218.443 188.365L218.486 187.355C218.501 186.911 218.508 186.224 218.508 185.293C218.508 184.348 218.279 183.574 217.82 182.973L216.832 181.984C216.445 181.583 216.252 181.268 216.252 181.039C216.252 180.509 218.615 180.244 223.342 180.244C225.333 180.244 226.328 180.531 226.328 181.104C226.328 181.49 226.042 181.848 225.469 182.178C224.366 182.822 223.743 183.367 223.6 183.811C223.456 184.255 223.385 186.954 223.385 191.91L223.234 203.598C223.234 205.445 223.456 206.67 223.9 207.271C224.087 207.529 224.516 207.844 225.189 208.217C225.863 208.589 226.199 208.897 226.199 209.141ZM252.539 208.904C252.539 209.105 252.288 209.363 251.787 209.678C251.286 209.979 250.448 210.129 249.273 210.129C248.099 210.129 247.347 210.014 247.018 209.785C246.688 209.556 246.402 209.141 246.158 208.539C245.929 207.938 245.714 207.637 245.514 207.637C245.327 207.637 244.919 207.866 244.289 208.324C242.413 209.685 240.658 210.365 239.025 210.365C239.011 210.365 238.997 210.365 238.982 210.365H238.338C235.96 210.365 234.249 209.377 233.203 207.4C232.659 206.369 232.387 203.719 232.387 199.451C232.387 195.183 232.294 192.87 232.107 192.512C231.936 192.139 231.47 191.824 230.711 191.566C229.966 191.309 229.594 190.972 229.594 190.557L229.809 190.191C230.424 189.676 231.993 189.418 234.514 189.418C235.516 189.418 236.104 189.883 236.275 190.814C236.533 192.247 236.662 194.875 236.662 198.699C236.662 202.509 236.848 204.815 237.221 205.617C237.88 207.021 238.968 207.723 240.486 207.723C241.346 207.723 242.227 207.501 243.129 207.057C244.031 206.598 244.697 205.982 245.127 205.209C245.571 204.436 245.793 202.294 245.793 198.785C245.793 195.262 245.729 193.249 245.6 192.748C245.471 192.247 245.141 191.803 244.611 191.416C244.067 191.029 243.795 190.664 243.795 190.32C243.795 189.762 245.299 189.482 248.307 189.482C249.037 189.482 249.524 189.618 249.768 189.891C250.025 190.148 250.154 190.657 250.154 191.416L250.133 192.039L250.047 193.285L249.939 199.043C249.939 202.967 250.04 205.331 250.24 206.133C250.441 206.921 250.87 207.486 251.529 207.83C252.202 208.174 252.539 208.532 252.539 208.904ZM264.936 209.055C264.936 209.585 264.012 209.85 262.164 209.85L260.188 209.785C259.758 209.771 259.113 209.764 258.254 209.764C256.922 209.764 256.256 209.42 256.256 208.732C256.256 208.503 256.614 208.217 257.33 207.873C258.061 207.529 258.512 207.15 258.684 206.734C258.87 206.305 258.963 205.159 258.963 203.297V199.516L258.92 198.184V195.756C258.92 194.581 258.834 193.736 258.662 193.221C258.505 192.691 258.111 192.261 257.48 191.932C256.85 191.588 256.535 191.344 256.535 191.201C256.535 190.771 256.764 190.449 257.223 190.234C258.139 189.819 259.393 189.611 260.982 189.611C261.799 189.611 262.357 189.926 262.658 190.557C263.145 191.545 263.417 192.039 263.475 192.039C263.518 192.039 263.826 191.839 264.398 191.438C266.389 190.005 268.187 189.282 269.791 189.268H270.457C273.007 189.282 274.797 190.392 275.828 192.598C276.344 193.715 276.602 197.002 276.602 202.459C276.602 205.123 276.695 206.641 276.881 207.014C277.081 207.386 277.547 207.744 278.277 208.088C279.022 208.432 279.395 208.732 279.395 208.99C279.395 209.592 277.432 209.893 273.508 209.893H272.863C271.603 209.893 270.973 209.699 270.973 209.312C270.973 208.926 271.195 208.525 271.639 208.109C272.083 207.694 272.348 207.365 272.434 207.121C272.534 206.878 272.584 206.29 272.584 205.359C272.584 204.428 272.577 203.741 272.562 203.297L272.52 201.965V199.193C272.52 196.243 272.219 194.266 271.617 193.264C271.03 192.247 269.963 191.738 268.416 191.738C267.643 191.738 266.826 191.967 265.967 192.426C265.107 192.87 264.413 193.464 263.883 194.209C263.353 194.954 263.088 196.844 263.088 199.881L262.959 203.92C262.959 205.295 263.059 206.247 263.26 206.777C263.46 207.293 263.79 207.758 264.248 208.174C264.706 208.589 264.936 208.883 264.936 209.055ZM291.791 208.109H292.457C293.116 208.109 293.832 207.909 294.605 207.508C295.393 207.092 296.002 206.57 296.432 205.939C296.861 205.309 297.076 203.59 297.076 200.783V196.314C297.076 194.553 296.84 193.4 296.367 192.855C295.451 191.796 294.212 191.266 292.65 191.266H292.199C290.681 191.266 289.378 191.939 288.289 193.285C287.201 194.617 286.656 196.393 286.656 198.613L286.613 199.129V200.439C286.613 202.602 287.093 204.421 288.053 205.896C289.012 207.372 290.258 208.109 291.791 208.109ZM297.205 189.074C297.277 188.845 297.312 187.735 297.312 185.744C297.312 183.739 297.191 182.507 296.947 182.049C296.704 181.59 296.253 181.218 295.594 180.932C294.949 180.631 294.627 180.301 294.627 179.943C294.627 179.743 294.72 179.571 294.906 179.428C295.637 178.869 297.005 178.59 299.01 178.59H299.504C300.492 178.59 301.072 179.12 301.244 180.18C301.258 180.266 301.266 184.441 301.266 192.705C301.266 200.969 301.323 205.417 301.438 206.047C301.552 206.677 301.853 207.164 302.34 207.508C303.342 208.21 303.844 208.589 303.844 208.646C303.844 209.005 303.686 209.277 303.371 209.463C302.598 209.921 301.652 210.15 300.535 210.15C299.432 210.15 298.745 210.036 298.473 209.807C298.201 209.577 297.928 209.262 297.656 208.861C297.384 208.46 297.219 208.26 297.162 208.26C296.976 208.26 296.561 208.453 295.916 208.84C295.286 209.212 294.577 209.563 293.789 209.893C293.001 210.222 292.006 210.387 290.803 210.387H290.266C289.349 210.387 288.375 210.136 287.344 209.635C285.439 208.704 284.114 207.15 283.369 204.973C282.896 203.569 282.66 202.079 282.66 200.504C282.66 197.167 283.577 194.495 285.41 192.49C287.243 190.485 289.764 189.482 292.973 189.482L293.488 189.525L294.477 189.654C295.25 189.74 295.701 189.783 295.83 189.783C296.604 189.783 297.062 189.547 297.205 189.074ZM317.143 207.873C317.916 208.274 318.303 208.732 318.303 209.248C318.303 209.764 317.243 210.021 315.123 210.021H312.846L311.943 209.979L310.611 209.957C308.907 209.957 308.055 209.663 308.055 209.076C308.055 208.775 308.398 208.432 309.086 208.045C309.773 207.644 310.225 207.128 310.439 206.498C310.669 205.868 310.783 203.748 310.783 200.139C310.783 196.515 310.676 194.338 310.461 193.607C310.246 192.863 309.809 192.297 309.15 191.91C308.506 191.523 308.184 191.173 308.184 190.857C308.184 190.729 308.291 190.585 308.506 190.428C309.337 189.812 310.812 189.504 312.932 189.504C313.791 189.504 314.371 189.819 314.672 190.449C315.173 191.495 315.481 192.018 315.596 192.018C315.911 192.018 316.312 191.824 316.799 191.438C318.346 190.206 319.936 189.59 321.568 189.59C322.17 189.59 322.707 189.84 323.18 190.342C323.652 190.829 323.889 191.387 323.889 192.018C323.889 192.633 323.724 193.128 323.395 193.5C323.065 193.858 322.657 194.037 322.17 194.037C321.697 194.037 321.153 193.837 320.537 193.436C319.921 193.035 319.341 192.834 318.797 192.834C317.522 192.834 316.498 193.772 315.725 195.648C315.266 196.794 315.037 198.714 315.037 201.406C315.037 204.099 315.195 205.753 315.51 206.369C315.825 206.971 316.369 207.472 317.143 207.873ZM332.203 197.818H332.762L336.865 197.539C337.367 197.467 337.732 197.432 337.961 197.432C338.906 197.432 339.565 197.245 339.938 196.873C340.095 196.715 340.174 196.343 340.174 195.756C340.174 194.395 339.773 193.271 338.971 192.383C338.183 191.48 337.23 191.029 336.113 191.029H335.684C334.395 191.029 333.242 191.588 332.225 192.705C331.222 193.822 330.721 195.083 330.721 196.486L330.678 196.766V196.895C330.678 197.453 330.979 197.732 331.58 197.732C331.867 197.79 332.074 197.818 332.203 197.818ZM330.549 201.428C330.549 203.419 331.186 204.987 332.461 206.133C333.736 207.279 335.411 207.852 337.488 207.852C338.348 207.852 339.479 207.529 340.883 206.885C342.286 206.24 343.01 205.918 343.053 205.918C343.554 205.918 343.805 206.154 343.805 206.627C343.805 207.515 342.809 208.446 340.818 209.42C339.458 210.079 338.004 210.408 336.457 210.408H335.963C332.926 210.408 330.549 209.463 328.83 207.572C327.111 205.667 326.252 203.189 326.252 200.139V199.645C326.252 199.616 326.252 199.58 326.252 199.537C326.252 198.277 326.503 197.009 327.004 195.734C328.064 192.999 329.747 191.115 332.053 190.084C333.499 189.439 334.824 189.117 336.027 189.117H336.973C338.849 189.117 340.482 189.719 341.871 190.922C342.616 191.566 343.196 192.383 343.611 193.371C344.027 194.359 344.234 195.233 344.234 195.992V196.443C344.234 197.532 343.79 198.262 342.902 198.635C342.387 198.85 340.51 199.072 337.273 199.301C334.051 199.53 332.239 199.702 331.838 199.816C330.979 200.06 330.549 200.597 330.549 201.428ZM357.49 208.109H358.156C358.815 208.109 359.531 207.909 360.305 207.508C361.092 207.092 361.701 206.57 362.131 205.939C362.561 205.309 362.775 203.59 362.775 200.783V196.314C362.775 194.553 362.539 193.4 362.066 192.855C361.15 191.796 359.911 191.266 358.35 191.266H357.898C356.38 191.266 355.077 191.939 353.988 193.285C352.9 194.617 352.355 196.393 352.355 198.613L352.312 199.129V200.439C352.312 202.602 352.792 204.421 353.752 205.896C354.712 207.372 355.958 208.109 357.49 208.109ZM362.904 189.074C362.976 188.845 363.012 187.735 363.012 185.744C363.012 183.739 362.89 182.507 362.646 182.049C362.403 181.59 361.952 181.218 361.293 180.932C360.648 180.631 360.326 180.301 360.326 179.943C360.326 179.743 360.419 179.571 360.605 179.428C361.336 178.869 362.704 178.59 364.709 178.59H365.203C366.191 178.59 366.771 179.12 366.943 180.18C366.958 180.266 366.965 184.441 366.965 192.705C366.965 200.969 367.022 205.417 367.137 206.047C367.251 206.677 367.552 207.164 368.039 207.508C369.042 208.21 369.543 208.589 369.543 208.646C369.543 209.005 369.385 209.277 369.07 209.463C368.297 209.921 367.352 210.15 366.234 210.15C365.132 210.15 364.444 210.036 364.172 209.807C363.9 209.577 363.628 209.262 363.355 208.861C363.083 208.46 362.919 208.26 362.861 208.26C362.675 208.26 362.26 208.453 361.615 208.84C360.985 209.212 360.276 209.563 359.488 209.893C358.701 210.222 357.705 210.387 356.502 210.387H355.965C355.048 210.387 354.074 210.136 353.043 209.635C351.138 208.704 349.813 207.15 349.068 204.973C348.596 203.569 348.359 202.079 348.359 200.504C348.359 197.167 349.276 194.495 351.109 192.49C352.943 190.485 355.464 189.482 358.672 189.482L359.188 189.525L360.176 189.654C360.949 189.74 361.4 189.783 361.529 189.783C362.303 189.783 362.761 189.547 362.904 189.074ZM389.008 204.135V204.715C389.008 205.417 388.822 206.154 388.449 206.928C388.077 207.687 387.511 208.331 386.752 208.861C385.334 209.864 383.587 210.365 381.51 210.365H380.93C378.237 210.365 376.182 209.993 374.764 209.248C374.09 208.89 373.754 208.031 373.754 206.67V206.154C373.754 204.679 374.148 203.941 374.936 203.941C375.308 203.941 375.795 204.45 376.396 205.467C376.998 206.469 377.514 207.143 377.943 207.486C378.803 208.174 379.927 208.518 381.316 208.518C382.706 208.518 383.723 208.217 384.367 207.615C385.026 207.014 385.355 206.269 385.355 205.381C385.355 204.479 384.911 203.684 384.023 202.996C383.479 202.581 382.14 201.922 380.006 201.02C377.886 200.103 376.389 199.201 375.516 198.312C374.656 197.41 374.227 196.186 374.227 194.639C374.227 193.092 374.893 191.788 376.225 190.729C377.557 189.669 379.247 189.139 381.295 189.139H381.875C384.539 189.139 386.394 189.475 387.439 190.148C387.912 190.449 388.148 191.18 388.148 192.34C388.148 194.03 387.726 194.875 386.881 194.875C386.594 194.875 386.172 194.438 385.613 193.564C385.055 192.691 384.475 192.046 383.873 191.631C383.286 191.215 382.426 191.008 381.295 191.008C380.178 191.008 379.304 191.266 378.674 191.781C378.058 192.297 377.75 192.999 377.75 193.887C377.75 194.775 378.251 195.562 379.254 196.25C379.827 196.637 381.066 197.224 382.971 198.012C384.89 198.785 386.301 199.566 387.203 200.354C388.406 201.399 389.008 202.66 389.008 204.135ZM197.045 234.943H196.594C195.047 234.943 193.736 235.774 192.662 237.436C191.817 238.739 191.395 240.694 191.395 243.301V243.559L191.416 243.838C191.416 247.791 192.476 250.462 194.596 251.852C195.355 252.339 196.207 252.582 197.152 252.582L197.389 252.561C198.921 252.561 200.153 251.837 201.084 250.391C202.015 248.944 202.48 247.068 202.48 244.762V243.43C202.48 240.938 201.965 238.904 200.934 237.328C199.917 235.738 198.62 234.943 197.045 234.943ZM207.057 243.086V244.16C207.057 245.478 206.785 246.824 206.24 248.199C205.195 250.878 203.383 252.718 200.805 253.721C199.559 254.208 198.363 254.451 197.217 254.451H196.873L196.508 254.43C193.815 254.43 191.559 253.52 189.74 251.701C188.91 250.87 188.251 249.76 187.764 248.371C187.291 246.982 187.055 245.678 187.055 244.461V243.408C187.055 242.062 187.32 240.708 187.85 239.348C188.394 237.987 189.081 236.87 189.912 235.996C190.757 235.108 191.817 234.406 193.092 233.891C194.367 233.361 195.598 233.096 196.787 233.096H197.84C200.318 233.096 202.473 234.012 204.307 235.846C205.094 236.633 205.746 237.693 206.262 239.025C206.792 240.357 207.057 241.711 207.057 243.086ZM218.572 254.58H217.992L217.434 254.559C213.294 254.559 211.225 254.243 211.225 253.613C211.225 253.327 211.604 252.976 212.363 252.561C213.137 252.145 213.602 251.572 213.76 250.842C213.932 250.111 214.018 247.87 214.018 244.117C214.018 240.365 213.932 238.223 213.76 237.693C213.588 237.163 213.237 236.684 212.707 236.254C212.191 235.824 211.934 235.466 211.934 235.18C211.934 234.893 212.184 234.392 212.686 233.676C213.187 232.945 213.559 232.186 213.803 231.398C214.719 228.276 215.536 226.242 216.252 225.297C217.742 223.32 219.911 222.332 222.762 222.332C224.051 222.332 225.061 222.576 225.791 223.062C226.521 223.549 226.887 224.094 226.887 224.695C226.887 225.283 226.729 225.784 226.414 226.199C226.099 226.615 225.662 226.822 225.104 226.822C224.559 226.822 223.879 226.507 223.062 225.877C222.26 225.232 221.487 224.91 220.742 224.91C219.997 224.91 219.396 225.483 218.938 226.629C218.479 227.76 218.25 228.928 218.25 230.131C218.25 231.334 218.544 232.201 219.131 232.73C219.245 232.845 219.833 233.174 220.893 233.719C221.952 234.249 222.482 234.678 222.482 235.008C222.482 235.337 221.91 235.674 220.764 236.018C219.632 236.361 218.938 236.798 218.68 237.328C218.279 238.145 218.078 240.486 218.078 244.354C218.078 248.206 218.178 250.441 218.379 251.057C218.579 251.673 219.088 252.21 219.904 252.668C220.735 253.126 221.15 253.52 221.15 253.85C221.15 254.337 220.291 254.58 218.572 254.58ZM267.299 224.975C267.9 224.602 269.068 224.416 270.801 224.416C272.534 224.416 273.4 224.781 273.4 225.512L272.928 226.092C272.283 226.822 271.889 227.316 271.746 227.574C271.331 228.362 271.123 229.501 271.123 230.99C271.123 240.801 271.359 246.924 271.832 249.359C271.99 250.161 272.312 250.785 272.799 251.229C273.887 252.202 274.432 252.732 274.432 252.818L273.98 253.119C273.207 253.463 271.803 253.635 269.77 253.635C267.736 253.635 266.511 253.384 266.096 252.883L265.924 252.432L266.096 251.852C266.282 251.236 266.518 250.426 266.805 249.424C267.091 248.421 267.234 247.161 267.234 245.643C267.234 237.221 266.991 232.38 266.504 231.119L266.268 230.904C266.081 230.904 264.778 233.64 262.357 239.111L259.199 246.438C258.712 247.612 258.368 248.414 258.168 248.844L257.609 250.025C256.85 251.515 256.148 252.26 255.504 252.26C254.974 252.26 254.308 251.422 253.506 249.746C253.277 249.259 251.938 246.029 249.488 240.057C247.053 234.07 245.614 231.076 245.17 231.076L244.912 231.377C244.454 232.451 244.225 237.006 244.225 245.041C244.225 246.387 244.432 247.992 244.848 249.854C245.277 251.715 245.492 252.661 245.492 252.689L245.17 253.076C244.669 253.477 243.723 253.678 242.334 253.678C240.945 253.678 239.978 253.599 239.434 253.441C238.904 253.27 238.639 252.962 238.639 252.518C238.639 252.403 239.054 252.023 239.885 251.379C240.73 250.72 241.238 249.825 241.41 248.693L241.539 247.469C241.582 246.924 241.639 246.072 241.711 244.912L241.861 242.312C242.148 237.901 242.291 234.621 242.291 232.473C242.291 230.324 242.105 228.856 241.732 228.068C241.575 227.739 241.167 227.245 240.508 226.586C239.863 225.913 239.541 225.49 239.541 225.318C239.541 224.76 240.687 224.48 242.979 224.48C244.396 224.48 245.485 224.767 246.244 225.34C246.602 225.612 247.146 226.299 247.877 227.402C248.607 228.505 249.932 231.305 251.852 235.803C253.771 240.286 254.867 242.842 255.139 243.473L255.654 244.611L256.213 245.342C256.542 245.342 258.082 242.441 260.832 236.641C263.582 230.826 265.201 227.517 265.688 226.715C266.174 225.913 266.712 225.333 267.299 224.975ZM280.834 226.586V225.984C280.863 225.87 280.877 225.705 280.877 225.49C280.877 225.261 281.113 224.91 281.586 224.438C282.059 223.965 282.538 223.729 283.025 223.729L283.455 223.664H283.799C284.386 223.664 284.93 223.879 285.432 224.309C285.947 224.724 286.205 225.189 286.205 225.705L286.27 226.221V226.414L286.184 226.908C286.184 227.338 285.919 227.768 285.389 228.197C284.873 228.627 284.4 228.842 283.971 228.842L283.455 228.906H283.369L283.283 228.885H283.111C282.997 228.856 282.911 228.842 282.854 228.842C282.438 228.842 281.994 228.613 281.521 228.154C281.063 227.682 280.834 227.159 280.834 226.586ZM280.361 254.15C279.416 254.15 278.943 253.864 278.943 253.291C278.943 252.919 279.316 252.568 280.061 252.238C280.805 251.895 281.264 251.408 281.436 250.777C281.622 250.133 281.715 247.898 281.715 244.074L281.736 243.408V242.742L281.758 242.076V240.744L281.693 238.768C281.693 237.622 281.564 236.898 281.307 236.598C281.063 236.297 280.576 236.046 279.846 235.846C279.115 235.645 278.75 235.359 278.75 234.986C278.75 234.686 278.908 234.442 279.223 234.256C280.225 233.654 281.865 233.354 284.143 233.354C284.973 233.354 285.46 233.647 285.604 234.234C285.675 234.535 285.711 237.264 285.711 242.42C285.711 247.576 285.79 250.434 285.947 250.992C286.105 251.536 286.585 251.973 287.387 252.303C288.203 252.618 288.611 252.904 288.611 253.162V253.398C288.611 253.814 287.988 254.021 286.742 254.021C286.312 254.05 285.997 254.064 285.797 254.064L284.83 254.086H283.885L281.65 254.15H280.361ZM294.52 250.541C294.763 249.08 294.885 244.883 294.885 237.951C294.885 231.005 294.806 227.159 294.648 226.414C294.505 225.669 294.111 225.154 293.467 224.867C292.536 224.466 292.07 224.122 292.07 223.836C292.07 223.535 292.249 223.299 292.607 223.127C293.768 222.568 295.465 222.289 297.699 222.289C298.544 222.289 299.024 222.726 299.139 223.6C299.167 223.8 299.182 225.777 299.182 229.529L299.16 230.861V232.645L299.117 234.406V236.189C299.117 244.697 299.167 249.352 299.268 250.154C299.382 250.942 299.747 251.529 300.363 251.916C301.495 252.632 302.061 253.04 302.061 253.141C302.061 253.656 301.058 253.914 299.053 253.914L298.193 253.957L294.262 254.043H293.359C292.6 254.043 292.221 253.835 292.221 253.42C292.221 253.09 292.572 252.718 293.273 252.303C293.975 251.887 294.391 251.3 294.52 250.541ZM307.668 250.541C307.911 249.08 308.033 244.883 308.033 237.951C308.033 231.005 307.954 227.159 307.797 226.414C307.654 225.669 307.26 225.154 306.615 224.867C305.684 224.466 305.219 224.122 305.219 223.836C305.219 223.535 305.398 223.299 305.756 223.127C306.916 222.568 308.613 222.289 310.848 222.289C311.693 222.289 312.173 222.726 312.287 223.6C312.316 223.8 312.33 225.777 312.33 229.529L312.309 230.861V232.645L312.266 234.406V236.189C312.266 244.697 312.316 249.352 312.416 250.154C312.531 250.942 312.896 251.529 313.512 251.916C314.643 252.632 315.209 253.04 315.209 253.141C315.209 253.656 314.206 253.914 312.201 253.914L311.342 253.957L307.41 254.043H306.508C305.749 254.043 305.369 253.835 305.369 253.42C305.369 253.09 305.72 252.718 306.422 252.303C307.124 251.887 307.539 251.3 307.668 250.541ZM320.623 226.586V225.984C320.652 225.87 320.666 225.705 320.666 225.49C320.666 225.261 320.902 224.91 321.375 224.438C321.848 223.965 322.327 223.729 322.814 223.729L323.244 223.664H323.588C324.175 223.664 324.719 223.879 325.221 224.309C325.736 224.724 325.994 225.189 325.994 225.705L326.059 226.221V226.414L325.973 226.908C325.973 227.338 325.708 227.768 325.178 228.197C324.662 228.627 324.189 228.842 323.76 228.842L323.244 228.906H323.158L323.072 228.885H322.9C322.786 228.856 322.7 228.842 322.643 228.842C322.227 228.842 321.783 228.613 321.311 228.154C320.852 227.682 320.623 227.159 320.623 226.586ZM320.15 254.15C319.205 254.15 318.732 253.864 318.732 253.291C318.732 252.919 319.105 252.568 319.85 252.238C320.594 251.895 321.053 251.408 321.225 250.777C321.411 250.133 321.504 247.898 321.504 244.074L321.525 243.408V242.742L321.547 242.076V240.744L321.482 238.768C321.482 237.622 321.354 236.898 321.096 236.598C320.852 236.297 320.365 236.046 319.635 235.846C318.904 235.645 318.539 235.359 318.539 234.986C318.539 234.686 318.697 234.442 319.012 234.256C320.014 233.654 321.654 233.354 323.932 233.354C324.762 233.354 325.249 233.647 325.393 234.234C325.464 234.535 325.5 237.264 325.5 242.42C325.5 247.576 325.579 250.434 325.736 250.992C325.894 251.536 326.374 251.973 327.176 252.303C327.992 252.618 328.4 252.904 328.4 253.162V253.398C328.4 253.814 327.777 254.021 326.531 254.021C326.102 254.05 325.786 254.064 325.586 254.064L324.619 254.086H323.674L321.439 254.15H320.15ZM341.936 234.943H341.484C339.938 234.943 338.627 235.774 337.553 237.436C336.708 238.739 336.285 240.694 336.285 243.301V243.559L336.307 243.838C336.307 247.791 337.367 250.462 339.486 251.852C340.245 252.339 341.098 252.582 342.043 252.582L342.279 252.561C343.812 252.561 345.044 251.837 345.975 250.391C346.906 248.944 347.371 247.068 347.371 244.762V243.43C347.371 240.938 346.855 238.904 345.824 237.328C344.807 235.738 343.511 234.943 341.936 234.943ZM351.947 243.086V244.16C351.947 245.478 351.675 246.824 351.131 248.199C350.085 250.878 348.273 252.718 345.695 253.721C344.449 254.208 343.253 254.451 342.107 254.451H341.764L341.398 254.43C338.706 254.43 336.45 253.52 334.631 251.701C333.8 250.87 333.141 249.76 332.654 248.371C332.182 246.982 331.945 245.678 331.945 244.461V243.408C331.945 242.062 332.21 240.708 332.74 239.348C333.285 237.987 333.972 236.87 334.803 235.996C335.648 235.108 336.708 234.406 337.982 233.891C339.257 233.361 340.489 233.096 341.678 233.096H342.73C345.208 233.096 347.364 234.012 349.197 235.846C349.985 236.633 350.637 237.693 351.152 239.025C351.682 240.357 351.947 241.711 351.947 243.086ZM364.73 253.055C364.73 253.585 363.807 253.85 361.959 253.85L359.982 253.785C359.553 253.771 358.908 253.764 358.049 253.764C356.717 253.764 356.051 253.42 356.051 252.732C356.051 252.503 356.409 252.217 357.125 251.873C357.855 251.529 358.307 251.15 358.479 250.734C358.665 250.305 358.758 249.159 358.758 247.297V243.516L358.715 242.184V239.756C358.715 238.581 358.629 237.736 358.457 237.221C358.299 236.691 357.906 236.261 357.275 235.932C356.645 235.588 356.33 235.344 356.33 235.201C356.33 234.771 356.559 234.449 357.018 234.234C357.934 233.819 359.188 233.611 360.777 233.611C361.594 233.611 362.152 233.926 362.453 234.557C362.94 235.545 363.212 236.039 363.27 236.039C363.312 236.039 363.62 235.839 364.193 235.438C366.184 234.005 367.982 233.282 369.586 233.268H370.252C372.801 233.282 374.592 234.392 375.623 236.598C376.139 237.715 376.396 241.002 376.396 246.459C376.396 249.123 376.49 250.641 376.676 251.014C376.876 251.386 377.342 251.744 378.072 252.088C378.817 252.432 379.189 252.732 379.189 252.99C379.189 253.592 377.227 253.893 373.303 253.893H372.658C371.398 253.893 370.768 253.699 370.768 253.312C370.768 252.926 370.99 252.525 371.434 252.109C371.878 251.694 372.143 251.365 372.229 251.121C372.329 250.878 372.379 250.29 372.379 249.359C372.379 248.428 372.372 247.741 372.357 247.297L372.314 245.965V243.193C372.314 240.243 372.014 238.266 371.412 237.264C370.825 236.247 369.758 235.738 368.211 235.738C367.438 235.738 366.621 235.967 365.762 236.426C364.902 236.87 364.208 237.464 363.678 238.209C363.148 238.954 362.883 240.844 362.883 243.881L362.754 247.92C362.754 249.295 362.854 250.247 363.055 250.777C363.255 251.293 363.585 251.758 364.043 252.174C364.501 252.589 364.73 252.883 364.73 253.055ZM397.838 248.135V248.715C397.838 249.417 397.652 250.154 397.279 250.928C396.907 251.687 396.341 252.331 395.582 252.861C394.164 253.864 392.417 254.365 390.34 254.365H389.76C387.067 254.365 385.012 253.993 383.594 253.248C382.921 252.89 382.584 252.031 382.584 250.67V250.154C382.584 248.679 382.978 247.941 383.766 247.941C384.138 247.941 384.625 248.45 385.227 249.467C385.828 250.469 386.344 251.143 386.773 251.486C387.633 252.174 388.757 252.518 390.146 252.518C391.536 252.518 392.553 252.217 393.197 251.615C393.856 251.014 394.186 250.269 394.186 249.381C394.186 248.479 393.742 247.684 392.854 246.996C392.309 246.581 390.97 245.922 388.836 245.02C386.716 244.103 385.219 243.201 384.346 242.312C383.486 241.41 383.057 240.186 383.057 238.639C383.057 237.092 383.723 235.788 385.055 234.729C386.387 233.669 388.077 233.139 390.125 233.139H390.705C393.369 233.139 395.224 233.475 396.27 234.148C396.742 234.449 396.979 235.18 396.979 236.34C396.979 238.03 396.556 238.875 395.711 238.875C395.424 238.875 395.002 238.438 394.443 237.564C393.885 236.691 393.305 236.046 392.703 235.631C392.116 235.215 391.257 235.008 390.125 235.008C389.008 235.008 388.134 235.266 387.504 235.781C386.888 236.297 386.58 236.999 386.58 237.887C386.58 238.775 387.081 239.562 388.084 240.25C388.657 240.637 389.896 241.224 391.801 242.012C393.72 242.785 395.131 243.566 396.033 244.354C397.236 245.399 397.838 246.66 397.838 248.135Z" fill="#230F2C"/>
<path d="M614.727 197.303V197.045C614.727 196.1 613.509 192.583 611.074 186.496C610.73 185.637 610.523 185.207 610.451 185.207C610.394 185.207 609.642 187.126 608.195 190.965C606.763 194.803 606.047 196.887 606.047 197.217C606.047 197.475 606.734 197.604 608.109 197.604H611.805C613.753 197.604 614.727 197.503 614.727 197.303ZM596.701 208.861C596.701 208.575 597.131 208.16 597.99 207.615C598.864 207.071 599.537 206.269 600.01 205.209C600.024 205.166 600.511 203.906 601.471 201.428C602.43 198.936 603.483 196.329 604.629 193.607C605.789 190.872 606.548 188.981 606.906 187.936C607.264 186.876 607.665 185.63 608.109 184.197C608.553 182.765 608.868 181.891 609.055 181.576C609.628 180.602 610.401 180.115 611.375 180.115C611.704 180.115 612.048 180.244 612.406 180.502C613.48 181.29 614.727 183.76 616.145 187.914C616.703 189.547 617.885 192.791 619.689 197.646C621.494 202.502 622.568 205.288 622.912 206.004C623.256 206.72 623.714 207.243 624.287 207.572C625.462 208.245 626.049 208.74 626.049 209.055C626.049 209.613 624.946 209.893 622.74 209.893H620.205C617.699 209.893 616.445 209.635 616.445 209.119C616.445 208.775 616.682 208.353 617.154 207.852C617.627 207.336 617.863 206.813 617.863 206.283C617.863 205.739 617.577 204.758 617.004 203.34C616.445 201.908 616.03 201.005 615.758 200.633C615.257 199.945 614.204 199.602 612.6 199.602L611.354 199.559C610.924 199.544 610.286 199.537 609.441 199.537C607.135 199.537 605.76 199.73 605.316 200.117C604.872 200.49 604.342 201.471 603.727 203.061C603.111 204.636 602.803 205.71 602.803 206.283C602.803 206.856 603.096 207.422 603.684 207.98C604.285 208.539 604.586 208.868 604.586 208.969C604.586 209.47 603.884 209.721 602.48 209.721C598.628 209.721 596.701 209.434 596.701 208.861ZM628.627 190.814C628.627 190.485 628.985 190.12 629.701 189.719C630.432 189.318 630.897 188.974 631.098 188.688C631.312 188.387 631.678 187.506 632.193 186.045C632.723 184.584 633.275 183.854 633.848 183.854C634.435 183.854 634.829 184.083 635.029 184.541C635.115 184.756 635.223 185.343 635.352 186.303C635.48 187.248 635.717 187.921 636.061 188.322C636.404 188.709 637.228 189.053 638.531 189.354C639.835 189.654 640.486 190.07 640.486 190.6C640.486 191.115 639.777 191.488 638.359 191.717C636.941 191.932 636.111 192.254 635.867 192.684C635.409 193.471 635.18 195.699 635.18 199.365C635.18 203.018 635.373 205.302 635.76 206.219C636.161 207.121 636.77 207.572 637.586 207.572C638.044 207.572 638.667 207.451 639.455 207.207C640.257 206.949 640.737 206.82 640.895 206.82C641.367 206.82 641.604 207.1 641.604 207.658C641.604 208.346 640.844 209.026 639.326 209.699C638.452 210.086 637.529 210.279 636.555 210.279C635.595 210.279 634.714 210.057 633.912 209.613C633.124 209.169 632.523 208.553 632.107 207.766C631.492 206.605 631.184 204.149 631.184 200.396V198.613L631.141 196.895C631.141 195.076 630.997 193.829 630.711 193.156C630.439 192.483 630.124 192.032 629.766 191.803C629.007 191.33 628.627 191.001 628.627 190.814ZM657.717 181.92C656.9 181.648 656.492 181.268 656.492 180.781C656.492 180.28 657.087 180.029 658.275 180.029H659.543L660.188 180.051L662.1 180.072C664.706 180.072 666.275 180.137 666.805 180.266C667.335 180.38 667.6 180.652 667.6 181.082C667.6 181.368 667.17 181.727 666.311 182.156C665.451 182.572 664.943 183.159 664.785 183.918C664.456 185.465 664.291 189.497 664.291 196.014C664.291 202.531 664.42 206.011 664.678 206.455C665.05 207.1 666.49 207.422 668.996 207.422C671.517 207.422 673.193 207.221 674.023 206.82C674.868 206.419 675.692 205.589 676.494 204.328C677.311 203.053 677.883 202.416 678.213 202.416C678.743 202.416 679.008 202.86 679.008 203.748C679.008 206.842 678.6 208.732 677.783 209.42C677.296 209.835 674.911 210.043 670.629 210.043H668.717L668.072 210.021H666.805C659.93 210.021 656.492 209.735 656.492 209.162C656.492 208.79 656.865 208.382 657.609 207.938C658.368 207.493 658.877 206.827 659.135 205.939C659.393 205.051 659.521 202.23 659.521 197.475L659.607 188.43C659.607 185.293 659.5 183.488 659.285 183.016C659.07 182.543 658.548 182.178 657.717 181.92ZM687.365 197.818H687.924L692.027 197.539C692.529 197.467 692.894 197.432 693.123 197.432C694.068 197.432 694.727 197.245 695.1 196.873C695.257 196.715 695.336 196.343 695.336 195.756C695.336 194.395 694.935 193.271 694.133 192.383C693.345 191.48 692.393 191.029 691.275 191.029H690.846C689.557 191.029 688.404 191.588 687.387 192.705C686.384 193.822 685.883 195.083 685.883 196.486L685.84 196.766V196.895C685.84 197.453 686.141 197.732 686.742 197.732C687.029 197.79 687.236 197.818 687.365 197.818ZM685.711 201.428C685.711 203.419 686.348 204.987 687.623 206.133C688.898 207.279 690.574 207.852 692.65 207.852C693.51 207.852 694.641 207.529 696.045 206.885C697.449 206.24 698.172 205.918 698.215 205.918C698.716 205.918 698.967 206.154 698.967 206.627C698.967 207.515 697.971 208.446 695.98 209.42C694.62 210.079 693.166 210.408 691.619 210.408H691.125C688.089 210.408 685.711 209.463 683.992 207.572C682.273 205.667 681.414 203.189 681.414 200.139V199.645C681.414 199.616 681.414 199.58 681.414 199.537C681.414 198.277 681.665 197.009 682.166 195.734C683.226 192.999 684.909 191.115 687.215 190.084C688.661 189.439 689.986 189.117 691.189 189.117H692.135C694.011 189.117 695.644 189.719 697.033 190.922C697.778 191.566 698.358 192.383 698.773 193.371C699.189 194.359 699.396 195.233 699.396 195.992V196.443C699.396 197.532 698.952 198.262 698.064 198.635C697.549 198.85 695.673 199.072 692.436 199.301C689.213 199.53 687.401 199.702 687 199.816C686.141 200.06 685.711 200.597 685.711 201.428ZM713.684 200.074C711.822 200.074 710.311 200.525 709.15 201.428C707.99 202.33 707.41 203.311 707.41 204.371V205.102C707.439 205.273 707.453 205.417 707.453 205.531C707.453 206.219 707.754 206.799 708.355 207.271C708.971 207.744 709.58 207.98 710.182 207.98H710.869C711.814 207.98 712.882 207.565 714.07 206.734C714.93 206.133 715.359 205.374 715.359 204.457C715.388 204.285 715.402 204.156 715.402 204.07L715.445 203.512V202.846L715.467 202.438V200.955C715.467 200.325 715.281 200.01 714.908 200.01H714.371C714.113 200.053 713.884 200.074 713.684 200.074ZM711.857 189.074H712.395C715.388 189.074 717.436 189.984 718.539 191.803C719.212 192.92 719.549 195.512 719.549 199.58C719.549 203.648 719.606 205.875 719.721 206.262C719.907 206.906 720.315 207.336 720.945 207.551C721.977 207.909 722.492 208.152 722.492 208.281V208.604C722.492 208.89 722.163 209.227 721.504 209.613C720.845 210 719.871 210.193 718.582 210.193C717.837 210.193 717.164 209.871 716.562 209.227C715.961 208.568 715.567 208.238 715.381 208.238C715.367 208.238 714.572 208.604 712.996 209.334C711.421 210.064 710.182 210.43 709.279 210.43H708.27C706.895 210.43 705.734 209.95 704.789 208.99C703.858 208.016 703.393 206.964 703.393 205.832V205.295C703.393 203.49 704.073 202.044 705.434 200.955C706.365 200.21 707.704 199.594 709.451 199.107C709.652 199.05 710.439 198.878 711.814 198.592C713.189 198.291 714.027 198.069 714.328 197.926C715.116 197.539 715.51 196.701 715.51 195.412C715.51 194.109 715.159 193.085 714.457 192.34C713.755 191.581 712.796 191.201 711.578 191.201C710.361 191.201 709.301 191.867 708.398 193.199C707.496 194.531 706.558 195.197 705.584 195.197C705.369 195.197 705.097 195.04 704.768 194.725C704.438 194.41 704.273 193.915 704.273 193.242C704.273 192.197 704.832 191.344 705.949 190.686C707.768 189.611 709.738 189.074 711.857 189.074ZM741.463 204.135V204.715C741.463 205.417 741.277 206.154 740.904 206.928C740.532 207.687 739.966 208.331 739.207 208.861C737.789 209.864 736.042 210.365 733.965 210.365H733.385C730.692 210.365 728.637 209.993 727.219 209.248C726.546 208.89 726.209 208.031 726.209 206.67V206.154C726.209 204.679 726.603 203.941 727.391 203.941C727.763 203.941 728.25 204.45 728.852 205.467C729.453 206.469 729.969 207.143 730.398 207.486C731.258 208.174 732.382 208.518 733.771 208.518C735.161 208.518 736.178 208.217 736.822 207.615C737.481 207.014 737.811 206.269 737.811 205.381C737.811 204.479 737.367 203.684 736.479 202.996C735.934 202.581 734.595 201.922 732.461 201.02C730.341 200.103 728.844 199.201 727.971 198.312C727.111 197.41 726.682 196.186 726.682 194.639C726.682 193.092 727.348 191.788 728.68 190.729C730.012 189.669 731.702 189.139 733.75 189.139H734.33C736.994 189.139 738.849 189.475 739.895 190.148C740.367 190.449 740.604 191.18 740.604 192.34C740.604 194.03 740.181 194.875 739.336 194.875C739.049 194.875 738.627 194.438 738.068 193.564C737.51 192.691 736.93 192.046 736.328 191.631C735.741 191.215 734.882 191.008 733.75 191.008C732.633 191.008 731.759 191.266 731.129 191.781C730.513 192.297 730.205 192.999 730.205 193.887C730.205 194.775 730.706 195.562 731.709 196.25C732.282 196.637 733.521 197.224 735.426 198.012C737.345 198.785 738.756 199.566 739.658 200.354C740.861 201.399 741.463 202.66 741.463 204.135ZM745.115 190.814C745.115 190.485 745.473 190.12 746.189 189.719C746.92 189.318 747.385 188.974 747.586 188.688C747.801 188.387 748.166 187.506 748.682 186.045C749.212 184.584 749.763 183.854 750.336 183.854C750.923 183.854 751.317 184.083 751.518 184.541C751.604 184.756 751.711 185.343 751.84 186.303C751.969 187.248 752.205 187.921 752.549 188.322C752.893 188.709 753.716 189.053 755.02 189.354C756.323 189.654 756.975 190.07 756.975 190.6C756.975 191.115 756.266 191.488 754.848 191.717C753.43 191.932 752.599 192.254 752.355 192.684C751.897 193.471 751.668 195.699 751.668 199.365C751.668 203.018 751.861 205.302 752.248 206.219C752.649 207.121 753.258 207.572 754.074 207.572C754.533 207.572 755.156 207.451 755.943 207.207C756.745 206.949 757.225 206.82 757.383 206.82C757.855 206.82 758.092 207.1 758.092 207.658C758.092 208.346 757.333 209.026 755.814 209.699C754.941 210.086 754.017 210.279 753.043 210.279C752.083 210.279 751.202 210.057 750.4 209.613C749.613 209.169 749.011 208.553 748.596 207.766C747.98 206.605 747.672 204.149 747.672 200.396V198.613L747.629 196.895C747.629 195.076 747.486 193.829 747.199 193.156C746.927 192.483 746.612 192.032 746.254 191.803C745.495 191.33 745.115 191.001 745.115 190.814ZM778.588 209.012C778.588 208.682 779.068 208.274 780.027 207.787C780.987 207.286 781.574 206.477 781.789 205.359C782.004 204.228 782.111 200.533 782.111 194.273C782.111 188 781.99 184.505 781.746 183.789C781.517 183.073 780.65 182.715 779.146 182.715C777.643 182.715 776.554 182.901 775.881 183.273C775.208 183.646 774.642 184.19 774.184 184.906C773.238 186.367 772.687 187.098 772.529 187.098C771.856 187.098 771.52 186.682 771.52 185.852V185.207C771.52 182.271 771.856 180.631 772.529 180.287C772.787 180.158 776.525 180.094 783.744 180.094L792.574 180.115C793.047 180.115 793.527 180.108 794.014 180.094L795.432 180.051C796.162 180.051 796.649 180.23 796.893 180.588C797.279 181.175 797.473 182.65 797.473 185.014C797.473 186.231 797.279 186.84 796.893 186.84C796.363 186.84 795.797 186.331 795.195 185.314C794.594 184.283 793.949 183.581 793.262 183.209C792.574 182.822 791.457 182.629 789.91 182.629C788.363 182.629 787.447 182.98 787.16 183.682C786.888 184.383 786.752 188.05 786.752 194.682C786.752 201.299 786.831 205.016 786.988 205.832C787.146 206.648 787.482 207.271 787.998 207.701C788.156 207.83 788.528 208.038 789.115 208.324C789.717 208.611 790.018 208.876 790.018 209.119C790.018 209.735 789.523 210.043 788.535 210.043H787.117L782.906 209.957C780.027 209.957 778.588 209.642 778.588 209.012ZM803.037 197.818H803.596L807.699 197.539C808.201 197.467 808.566 197.432 808.795 197.432C809.74 197.432 810.399 197.245 810.771 196.873C810.929 196.715 811.008 196.343 811.008 195.756C811.008 194.395 810.607 193.271 809.805 192.383C809.017 191.48 808.064 191.029 806.947 191.029H806.518C805.229 191.029 804.076 191.588 803.059 192.705C802.056 193.822 801.555 195.083 801.555 196.486L801.512 196.766V196.895C801.512 197.453 801.812 197.732 802.414 197.732C802.701 197.79 802.908 197.818 803.037 197.818ZM801.383 201.428C801.383 203.419 802.02 204.987 803.295 206.133C804.57 207.279 806.245 207.852 808.322 207.852C809.182 207.852 810.313 207.529 811.717 206.885C813.12 206.24 813.844 205.918 813.887 205.918C814.388 205.918 814.639 206.154 814.639 206.627C814.639 207.515 813.643 208.446 811.652 209.42C810.292 210.079 808.838 210.408 807.291 210.408H806.797C803.76 210.408 801.383 209.463 799.664 207.572C797.945 205.667 797.086 203.189 797.086 200.139V199.645C797.086 199.616 797.086 199.58 797.086 199.537C797.086 198.277 797.337 197.009 797.838 195.734C798.898 192.999 800.581 191.115 802.887 190.084C804.333 189.439 805.658 189.117 806.861 189.117H807.807C809.683 189.117 811.316 189.719 812.705 190.922C813.45 191.566 814.03 192.383 814.445 193.371C814.861 194.359 815.068 195.233 815.068 195.992V196.443C815.068 197.532 814.624 198.262 813.736 198.635C813.221 198.85 811.344 199.072 808.107 199.301C804.885 199.53 803.073 199.702 802.672 199.816C801.812 200.06 801.383 200.597 801.383 201.428ZM827.938 209.055C827.938 209.585 827.014 209.85 825.166 209.85L823.189 209.785C822.76 209.771 822.115 209.764 821.256 209.764C819.924 209.764 819.258 209.42 819.258 208.732C819.258 208.503 819.616 208.217 820.332 207.873C821.062 207.529 821.514 207.15 821.686 206.734C821.872 206.305 821.965 205.159 821.965 203.297V199.516L821.922 198.184V195.756C821.922 194.581 821.836 193.736 821.664 193.221C821.507 192.691 821.113 192.261 820.482 191.932C819.852 191.588 819.537 191.344 819.537 191.201C819.537 190.771 819.766 190.449 820.225 190.234C821.141 189.819 822.395 189.611 823.984 189.611C824.801 189.611 825.359 189.926 825.66 190.557C826.147 191.545 826.419 192.039 826.477 192.039C826.52 192.039 826.827 191.839 827.4 191.438C829.391 190.005 831.189 189.282 832.793 189.268H833.459C836.008 189.282 837.799 190.392 838.83 192.598C839.346 193.715 839.604 197.002 839.604 202.459C839.604 205.123 839.697 206.641 839.883 207.014C840.083 207.386 840.549 207.744 841.279 208.088C842.024 208.432 842.396 208.732 842.396 208.99C842.396 209.592 840.434 209.893 836.51 209.893H835.865C834.605 209.893 833.975 209.699 833.975 209.312C833.975 208.926 834.197 208.525 834.641 208.109C835.085 207.694 835.35 207.365 835.436 207.121C835.536 206.878 835.586 206.29 835.586 205.359C835.586 204.428 835.579 203.741 835.564 203.297L835.521 201.965V199.193C835.521 196.243 835.221 194.266 834.619 193.264C834.032 192.247 832.965 191.738 831.418 191.738C830.645 191.738 829.828 191.967 828.969 192.426C828.109 192.87 827.415 193.464 826.885 194.209C826.355 194.954 826.09 196.844 826.09 199.881L825.961 203.92C825.961 205.295 826.061 206.247 826.262 206.777C826.462 207.293 826.792 207.758 827.25 208.174C827.708 208.589 827.938 208.883 827.938 209.055ZM629.551 253.012C629.551 252.682 630.031 252.274 630.99 251.787C631.95 251.286 632.537 250.477 632.752 249.359C632.967 248.228 633.074 244.533 633.074 238.273C633.074 232 632.952 228.505 632.709 227.789C632.48 227.073 631.613 226.715 630.109 226.715C628.605 226.715 627.517 226.901 626.844 227.273C626.171 227.646 625.605 228.19 625.146 228.906C624.201 230.367 623.65 231.098 623.492 231.098C622.819 231.098 622.482 230.682 622.482 229.852V229.207C622.482 226.271 622.819 224.631 623.492 224.287C623.75 224.158 627.488 224.094 634.707 224.094L643.537 224.115C644.01 224.115 644.49 224.108 644.977 224.094L646.395 224.051C647.125 224.051 647.612 224.23 647.855 224.588C648.242 225.175 648.436 226.65 648.436 229.014C648.436 230.231 648.242 230.84 647.855 230.84C647.326 230.84 646.76 230.331 646.158 229.314C645.557 228.283 644.912 227.581 644.225 227.209C643.537 226.822 642.42 226.629 640.873 226.629C639.326 226.629 638.41 226.98 638.123 227.682C637.851 228.383 637.715 232.05 637.715 238.682C637.715 245.299 637.794 249.016 637.951 249.832C638.109 250.648 638.445 251.271 638.961 251.701C639.118 251.83 639.491 252.038 640.078 252.324C640.68 252.611 640.98 252.876 640.98 253.119C640.98 253.735 640.486 254.043 639.498 254.043H638.08L633.869 253.957C630.99 253.957 629.551 253.642 629.551 253.012ZM651.572 252.883C651.572 252.625 651.887 252.181 652.518 251.551C653.162 250.906 653.542 250.176 653.656 249.359C653.785 248.543 653.85 244.984 653.85 238.682C653.85 232.365 653.728 228.34 653.484 226.607C653.37 225.805 653.119 225.268 652.732 224.996C651.715 224.28 651.207 223.893 651.207 223.836C651.207 223.578 651.551 223.285 652.238 222.955C652.926 222.626 654.036 222.461 655.568 222.461C656.571 222.461 657.208 222.812 657.48 223.514C657.681 224.029 657.781 225.197 657.781 227.016L657.717 229.379C657.674 230.969 657.652 232.036 657.652 232.58C657.652 234.27 657.889 235.115 658.361 235.115C658.447 235.115 659.264 234.814 660.811 234.213C662.372 233.611 663.697 233.311 664.785 233.311C667.105 233.311 668.781 234.148 669.812 235.824C670.643 237.199 671.059 239.749 671.059 243.473L671.037 245.084L671.016 245.879L670.994 248.285C670.994 249.717 671.102 250.62 671.316 250.992C671.531 251.35 671.939 251.751 672.541 252.195C673.157 252.625 673.465 252.926 673.465 253.098C673.465 253.656 672.434 253.936 670.371 253.936L669.619 253.979L667.342 254.064C666.053 254.064 665.408 253.821 665.408 253.334C665.408 253.105 665.637 252.704 666.096 252.131C666.568 251.558 666.855 251.164 666.955 250.949C667.055 250.72 667.105 249.596 667.105 247.576L667.062 246.008L667.084 243.58C667.084 240.343 666.79 238.245 666.203 237.285C665.63 236.326 664.742 235.846 663.539 235.846C662.35 235.846 661.276 236.118 660.316 236.662C659.371 237.192 658.727 237.858 658.383 238.66C658.039 239.462 657.867 241.611 657.867 245.105C657.867 248.586 657.953 250.512 658.125 250.885C658.311 251.257 658.669 251.673 659.199 252.131C659.729 252.575 659.994 252.876 659.994 253.033C659.994 253.635 658.59 253.936 655.783 253.936C652.976 253.936 651.572 253.585 651.572 252.883ZM687.129 234.943H686.678C685.131 234.943 683.82 235.774 682.746 237.436C681.901 238.739 681.479 240.694 681.479 243.301V243.559L681.5 243.838C681.5 247.791 682.56 250.462 684.68 251.852C685.439 252.339 686.291 252.582 687.236 252.582L687.473 252.561C689.005 252.561 690.237 251.837 691.168 250.391C692.099 248.944 692.564 247.068 692.564 244.762V243.43C692.564 240.938 692.049 238.904 691.018 237.328C690.001 235.738 688.704 234.943 687.129 234.943ZM697.141 243.086V244.16C697.141 245.478 696.868 246.824 696.324 248.199C695.279 250.878 693.467 252.718 690.889 253.721C689.643 254.208 688.447 254.451 687.301 254.451H686.957L686.592 254.43C683.899 254.43 681.643 253.52 679.824 251.701C678.993 250.87 678.335 249.76 677.848 248.371C677.375 246.982 677.139 245.678 677.139 244.461V243.408C677.139 242.062 677.404 240.708 677.934 239.348C678.478 237.987 679.165 236.87 679.996 235.996C680.841 235.108 681.901 234.406 683.176 233.891C684.451 233.361 685.682 233.096 686.871 233.096H687.924C690.402 233.096 692.557 234.012 694.391 235.846C695.178 236.633 695.83 237.693 696.346 239.025C696.876 240.357 697.141 241.711 697.141 243.086ZM723.395 252.904C723.395 253.105 723.144 253.363 722.643 253.678C722.141 253.979 721.303 254.129 720.129 254.129C718.954 254.129 718.202 254.014 717.873 253.785C717.544 253.556 717.257 253.141 717.014 252.539C716.785 251.938 716.57 251.637 716.369 251.637C716.183 251.637 715.775 251.866 715.145 252.324C713.268 253.685 711.514 254.365 709.881 254.365C709.867 254.365 709.852 254.365 709.838 254.365H709.193C706.816 254.365 705.104 253.377 704.059 251.4C703.514 250.369 703.242 247.719 703.242 243.451C703.242 239.183 703.149 236.87 702.963 236.512C702.791 236.139 702.326 235.824 701.566 235.566C700.822 235.309 700.449 234.972 700.449 234.557L700.664 234.191C701.28 233.676 702.848 233.418 705.369 233.418C706.372 233.418 706.959 233.883 707.131 234.814C707.389 236.247 707.518 238.875 707.518 242.699C707.518 246.509 707.704 248.815 708.076 249.617C708.735 251.021 709.824 251.723 711.342 251.723C712.201 251.723 713.082 251.501 713.984 251.057C714.887 250.598 715.553 249.982 715.982 249.209C716.426 248.436 716.648 246.294 716.648 242.785C716.648 239.262 716.584 237.249 716.455 236.748C716.326 236.247 715.997 235.803 715.467 235.416C714.923 235.029 714.65 234.664 714.65 234.32C714.65 233.762 716.154 233.482 719.162 233.482C719.893 233.482 720.38 233.618 720.623 233.891C720.881 234.148 721.01 234.657 721.01 235.416L720.988 236.039L720.902 237.285L720.795 243.043C720.795 246.967 720.895 249.331 721.096 250.133C721.296 250.921 721.726 251.486 722.385 251.83C723.058 252.174 723.395 252.532 723.395 252.904ZM742.43 248.135V248.715C742.43 249.417 742.243 250.154 741.871 250.928C741.499 251.687 740.933 252.331 740.174 252.861C738.756 253.864 737.008 254.365 734.932 254.365H734.352C731.659 254.365 729.604 253.993 728.186 253.248C727.512 252.89 727.176 252.031 727.176 250.67V250.154C727.176 248.679 727.57 247.941 728.357 247.941C728.73 247.941 729.217 248.45 729.818 249.467C730.42 250.469 730.936 251.143 731.365 251.486C732.225 252.174 733.349 252.518 734.738 252.518C736.128 252.518 737.145 252.217 737.789 251.615C738.448 251.014 738.777 250.269 738.777 249.381C738.777 248.479 738.333 247.684 737.445 246.996C736.901 246.581 735.562 245.922 733.428 245.02C731.308 244.103 729.811 243.201 728.938 242.312C728.078 241.41 727.648 240.186 727.648 238.639C727.648 237.092 728.314 235.788 729.646 234.729C730.979 233.669 732.669 233.139 734.717 233.139H735.297C737.961 233.139 739.816 233.475 740.861 234.148C741.334 234.449 741.57 235.18 741.57 236.34C741.57 238.03 741.148 238.875 740.303 238.875C740.016 238.875 739.594 238.438 739.035 237.564C738.477 236.691 737.896 236.046 737.295 235.631C736.708 235.215 735.848 235.008 734.717 235.008C733.6 235.008 732.726 235.266 732.096 235.781C731.48 236.297 731.172 236.999 731.172 237.887C731.172 238.775 731.673 239.562 732.676 240.25C733.249 240.637 734.488 241.224 736.393 242.012C738.312 242.785 739.723 243.566 740.625 244.354C741.828 245.399 742.43 246.66 742.43 248.135ZM756.416 244.074C754.554 244.074 753.043 244.525 751.883 245.428C750.723 246.33 750.143 247.311 750.143 248.371V249.102C750.171 249.273 750.186 249.417 750.186 249.531C750.186 250.219 750.486 250.799 751.088 251.271C751.704 251.744 752.312 251.98 752.914 251.98H753.602C754.547 251.98 755.614 251.565 756.803 250.734C757.662 250.133 758.092 249.374 758.092 248.457C758.12 248.285 758.135 248.156 758.135 248.07L758.178 247.512V246.846L758.199 246.438V244.955C758.199 244.325 758.013 244.01 757.641 244.01H757.104C756.846 244.053 756.617 244.074 756.416 244.074ZM754.59 233.074H755.127C758.12 233.074 760.169 233.984 761.271 235.803C761.945 236.92 762.281 239.512 762.281 243.58C762.281 247.648 762.339 249.875 762.453 250.262C762.639 250.906 763.048 251.336 763.678 251.551C764.709 251.909 765.225 252.152 765.225 252.281V252.604C765.225 252.89 764.895 253.227 764.236 253.613C763.577 254 762.604 254.193 761.314 254.193C760.57 254.193 759.896 253.871 759.295 253.227C758.693 252.568 758.299 252.238 758.113 252.238C758.099 252.238 757.304 252.604 755.729 253.334C754.153 254.064 752.914 254.43 752.012 254.43H751.002C749.627 254.43 748.467 253.95 747.521 252.99C746.59 252.016 746.125 250.964 746.125 249.832V249.295C746.125 247.49 746.805 246.044 748.166 244.955C749.097 244.21 750.436 243.594 752.184 243.107C752.384 243.05 753.172 242.878 754.547 242.592C755.922 242.291 756.76 242.069 757.061 241.926C757.848 241.539 758.242 240.701 758.242 239.412C758.242 238.109 757.891 237.085 757.189 236.34C756.488 235.581 755.528 235.201 754.311 235.201C753.093 235.201 752.033 235.867 751.131 237.199C750.229 238.531 749.29 239.197 748.316 239.197C748.102 239.197 747.829 239.04 747.5 238.725C747.171 238.41 747.006 237.915 747.006 237.242C747.006 236.197 747.564 235.344 748.682 234.686C750.501 233.611 752.47 233.074 754.59 233.074ZM777.557 253.055C777.557 253.585 776.633 253.85 774.785 253.85L772.809 253.785C772.379 253.771 771.734 253.764 770.875 253.764C769.543 253.764 768.877 253.42 768.877 252.732C768.877 252.503 769.235 252.217 769.951 251.873C770.682 251.529 771.133 251.15 771.305 250.734C771.491 250.305 771.584 249.159 771.584 247.297V243.516L771.541 242.184V239.756C771.541 238.581 771.455 237.736 771.283 237.221C771.126 236.691 770.732 236.261 770.102 235.932C769.471 235.588 769.156 235.344 769.156 235.201C769.156 234.771 769.385 234.449 769.844 234.234C770.76 233.819 772.014 233.611 773.604 233.611C774.42 233.611 774.979 233.926 775.279 234.557C775.766 235.545 776.038 236.039 776.096 236.039C776.139 236.039 776.447 235.839 777.02 235.438C779.01 234.005 780.808 233.282 782.412 233.268H783.078C785.628 233.282 787.418 234.392 788.449 236.598C788.965 237.715 789.223 241.002 789.223 246.459C789.223 249.123 789.316 250.641 789.502 251.014C789.702 251.386 790.168 251.744 790.898 252.088C791.643 252.432 792.016 252.732 792.016 252.99C792.016 253.592 790.053 253.893 786.129 253.893H785.484C784.224 253.893 783.594 253.699 783.594 253.312C783.594 252.926 783.816 252.525 784.26 252.109C784.704 251.694 784.969 251.365 785.055 251.121C785.155 250.878 785.205 250.29 785.205 249.359C785.205 248.428 785.198 247.741 785.184 247.297L785.141 245.965V243.193C785.141 240.243 784.84 238.266 784.238 237.264C783.651 236.247 782.584 235.738 781.037 235.738C780.264 235.738 779.447 235.967 778.588 236.426C777.729 236.87 777.034 237.464 776.504 238.209C775.974 238.954 775.709 240.844 775.709 243.881L775.58 247.92C775.58 249.295 775.68 250.247 775.881 250.777C776.081 251.293 776.411 251.758 776.869 252.174C777.327 252.589 777.557 252.883 777.557 253.055ZM804.412 252.109H805.078C805.737 252.109 806.453 251.909 807.227 251.508C808.014 251.092 808.623 250.57 809.053 249.939C809.482 249.309 809.697 247.59 809.697 244.783V240.314C809.697 238.553 809.461 237.4 808.988 236.855C808.072 235.796 806.833 235.266 805.271 235.266H804.82C803.302 235.266 801.999 235.939 800.91 237.285C799.822 238.617 799.277 240.393 799.277 242.613L799.234 243.129V244.439C799.234 246.602 799.714 248.421 800.674 249.896C801.633 251.372 802.88 252.109 804.412 252.109ZM809.826 233.074C809.898 232.845 809.934 231.735 809.934 229.744C809.934 227.739 809.812 226.507 809.568 226.049C809.325 225.59 808.874 225.218 808.215 224.932C807.57 224.631 807.248 224.301 807.248 223.943C807.248 223.743 807.341 223.571 807.527 223.428C808.258 222.869 809.626 222.59 811.631 222.59H812.125C813.113 222.59 813.693 223.12 813.865 224.18C813.88 224.266 813.887 228.441 813.887 236.705C813.887 244.969 813.944 249.417 814.059 250.047C814.173 250.677 814.474 251.164 814.961 251.508C815.964 252.21 816.465 252.589 816.465 252.646C816.465 253.005 816.307 253.277 815.992 253.463C815.219 253.921 814.273 254.15 813.156 254.15C812.053 254.15 811.366 254.036 811.094 253.807C810.822 253.577 810.549 253.262 810.277 252.861C810.005 252.46 809.84 252.26 809.783 252.26C809.597 252.26 809.182 252.453 808.537 252.84C807.907 253.212 807.198 253.563 806.41 253.893C805.622 254.222 804.627 254.387 803.424 254.387H802.887C801.97 254.387 800.996 254.136 799.965 253.635C798.06 252.704 796.735 251.15 795.99 248.973C795.518 247.569 795.281 246.079 795.281 244.504C795.281 241.167 796.198 238.495 798.031 236.49C799.865 234.485 802.385 233.482 805.594 233.482L806.109 233.525L807.098 233.654C807.871 233.74 808.322 233.783 808.451 233.783C809.225 233.783 809.683 233.547 809.826 233.074Z" fill="#230F2C"/>
<path d="M623.708 139.45C624.245 140.109 624.886 140.663 625.632 141.114C626.377 141.565 627.218 141.79 628.154 141.79C628.57 141.79 628.968 141.729 629.35 141.608C629.748 141.469 630.086 141.279 630.364 141.036C630.658 140.793 630.892 140.507 631.066 140.178C631.239 139.849 631.326 139.476 631.326 139.06C631.326 138.367 631.109 137.812 630.676 137.396C630.26 136.963 629.731 136.59 629.09 136.278C628.466 135.966 627.79 135.671 627.062 135.394C626.334 135.117 625.666 134.779 625.06 134.38C624.401 133.947 623.846 133.409 623.396 132.768C622.962 132.127 622.746 131.329 622.746 130.376C622.746 129.717 622.884 129.093 623.162 128.504C623.439 127.915 623.82 127.403 624.306 126.97C624.808 126.519 625.389 126.173 626.048 125.93C626.724 125.67 627.46 125.54 628.258 125.54C628.83 125.54 629.358 125.601 629.844 125.722C630.346 125.826 630.797 125.973 631.196 126.164C631.612 126.337 631.976 126.528 632.288 126.736C632.617 126.944 632.903 127.152 633.146 127.36L631.612 129.258C630.624 128.426 629.54 128.01 628.362 128.01C627.98 128.01 627.608 128.062 627.244 128.166C626.897 128.27 626.576 128.426 626.282 128.634C626.004 128.842 625.779 129.102 625.606 129.414C625.432 129.709 625.346 130.055 625.346 130.454C625.346 131.026 625.554 131.503 625.97 131.884C626.403 132.265 626.932 132.612 627.556 132.924C628.197 133.219 628.873 133.513 629.584 133.808C630.312 134.103 630.97 134.441 631.56 134.822C631.872 135.03 632.166 135.264 632.444 135.524C632.721 135.784 632.972 136.087 633.198 136.434C633.423 136.763 633.596 137.145 633.718 137.578C633.856 137.994 633.926 138.462 633.926 138.982C633.926 139.779 633.778 140.507 633.484 141.166C633.189 141.807 632.79 142.362 632.288 142.83C631.785 143.281 631.187 143.636 630.494 143.896C629.818 144.139 629.081 144.26 628.284 144.26C627.036 144.26 625.866 144 624.774 143.48C623.682 142.96 622.728 142.206 621.914 141.218L623.708 139.45ZM639.912 141.53H647.972V144H637.312V125.8H639.912V141.53ZM650.819 125.8H653.419V144H650.819V125.8ZM670.847 134.9C670.847 133.877 670.647 132.924 670.249 132.04C669.867 131.156 669.33 130.411 668.637 129.804C668.065 129.301 667.371 128.92 666.557 128.66C665.759 128.4 664.719 128.27 663.437 128.27H660.707V141.53H663.437C664.719 141.53 665.759 141.4 666.557 141.14C667.371 140.88 668.065 140.499 668.637 139.996C669.33 139.389 669.867 138.644 670.249 137.76C670.647 136.876 670.847 135.923 670.847 134.9ZM658.107 144V125.8H663.567C665.023 125.8 666.236 125.947 667.207 126.242C668.195 126.537 669.061 126.961 669.807 127.516C670.933 128.348 671.817 129.405 672.459 130.688C673.117 131.971 673.447 133.375 673.447 134.9C673.447 136.425 673.126 137.829 672.485 139.112C671.843 140.395 670.959 141.452 669.833 142.284C669.087 142.839 668.221 143.263 667.233 143.558C666.245 143.853 665.023 144 663.567 144H658.107ZM685.273 132.95V135.42H679.293V141.53H687.353V144H676.693V125.8H687.093V128.27H679.293V132.95H685.273ZM690.968 139.45C691.505 140.109 692.146 140.663 692.892 141.114C693.637 141.565 694.478 141.79 695.414 141.79C695.83 141.79 696.228 141.729 696.61 141.608C697.008 141.469 697.346 141.279 697.624 141.036C697.918 140.793 698.152 140.507 698.326 140.178C698.499 139.849 698.586 139.476 698.586 139.06C698.586 138.367 698.369 137.812 697.936 137.396C697.52 136.963 696.991 136.59 696.35 136.278C695.726 135.966 695.05 135.671 694.322 135.394C693.594 135.117 692.926 134.779 692.32 134.38C691.661 133.947 691.106 133.409 690.656 132.768C690.222 132.127 690.006 131.329 690.006 130.376C690.006 129.717 690.144 129.093 690.422 128.504C690.699 127.915 691.08 127.403 691.566 126.97C692.068 126.519 692.649 126.173 693.308 125.93C693.984 125.67 694.72 125.54 695.518 125.54C696.09 125.54 696.618 125.601 697.104 125.722C697.606 125.826 698.057 125.973 698.456 126.164C698.872 126.337 699.236 126.528 699.548 126.736C699.877 126.944 700.163 127.152 700.406 127.36L698.872 129.258C697.884 128.426 696.8 128.01 695.622 128.01C695.24 128.01 694.868 128.062 694.504 128.166C694.157 128.27 693.836 128.426 693.542 128.634C693.264 128.842 693.039 129.102 692.866 129.414C692.692 129.709 692.606 130.055 692.606 130.454C692.606 131.026 692.814 131.503 693.23 131.884C693.663 132.265 694.192 132.612 694.816 132.924C695.457 133.219 696.133 133.513 696.844 133.808C697.572 134.103 698.23 134.441 698.82 134.822C699.132 135.03 699.426 135.264 699.704 135.524C699.981 135.784 700.232 136.087 700.458 136.434C700.683 136.763 700.856 137.145 700.978 137.578C701.116 137.994 701.186 138.462 701.186 138.982C701.186 139.779 701.038 140.507 700.744 141.166C700.449 141.807 700.05 142.362 699.548 142.83C699.045 143.281 698.447 143.636 697.754 143.896C697.078 144.139 696.341 144.26 695.544 144.26C694.296 144.26 693.126 144 692.034 143.48C690.942 142.96 689.988 142.206 689.174 141.218L690.968 139.45ZM710.149 134.9C710.149 133.583 710.383 132.361 710.851 131.234C711.319 130.09 711.961 129.102 712.775 128.27C713.607 127.421 714.578 126.753 715.687 126.268C716.814 125.783 718.036 125.54 719.353 125.54C720.653 125.54 721.884 125.791 723.045 126.294C724.224 126.779 725.212 127.464 726.009 128.348L724.267 130.064C723.73 129.475 723.019 128.989 722.135 128.608C721.269 128.209 720.341 128.01 719.353 128.01C718.417 128.01 717.551 128.183 716.753 128.53C715.956 128.877 715.254 129.362 714.647 129.986C714.058 130.593 713.59 131.321 713.243 132.17C712.914 133.002 712.749 133.912 712.749 134.9C712.749 135.923 712.923 136.859 713.269 137.708C713.616 138.557 714.093 139.285 714.699 139.892C715.323 140.499 716.051 140.967 716.883 141.296C717.715 141.625 718.617 141.79 719.587 141.79C720.194 141.79 720.757 141.712 721.277 141.556C721.815 141.4 722.3 141.201 722.733 140.958C723.167 140.715 723.557 140.447 723.903 140.152C724.25 139.84 724.553 139.528 724.813 139.216L726.659 140.88C726.261 141.383 725.801 141.842 725.281 142.258C724.761 142.674 724.198 143.029 723.591 143.324C722.985 143.619 722.335 143.844 721.641 144C720.965 144.173 720.281 144.26 719.587 144.26C718.235 144.26 716.979 144.026 715.817 143.558C714.673 143.09 713.677 142.44 712.827 141.608C711.995 140.776 711.337 139.788 710.851 138.644C710.383 137.5 710.149 136.252 710.149 134.9ZM732.13 135.42V144H729.53V125.8H735.9C736.732 125.8 737.426 125.895 737.98 126.086C738.535 126.259 739.02 126.519 739.436 126.866C739.991 127.317 740.424 127.863 740.736 128.504C741.066 129.145 741.23 129.847 741.23 130.61C741.23 131.373 741.066 132.075 740.736 132.716C740.424 133.357 739.991 133.903 739.436 134.354C739.142 134.597 738.821 134.796 738.474 134.952C738.145 135.108 737.755 135.229 737.304 135.316L743.83 144H740.684L734.21 135.42H732.13ZM735.77 132.95C736.36 132.95 736.819 132.889 737.148 132.768C737.478 132.647 737.746 132.482 737.954 132.274C738.405 131.823 738.63 131.269 738.63 130.61C738.63 130.281 738.57 129.977 738.448 129.7C738.327 129.405 738.162 129.154 737.954 128.946C737.746 128.738 737.478 128.573 737.148 128.452C736.819 128.331 736.36 128.27 735.77 128.27H732.13V132.95H735.77ZM754.741 132.95V135.42H748.761V141.53H756.821V144H746.161V125.8H756.561V128.27H748.761V132.95H754.741ZM770.772 139.32H763.102L761.204 144H758.5L766.04 125.8H767.86L775.4 144H772.696L770.772 139.32ZM764.142 136.85H769.758L766.95 130.09L764.142 136.85ZM774.375 125.8H786.855V128.27H781.915V144H779.315V128.27H774.375V125.8ZM798.159 132.95V135.42H792.179V141.53H800.239V144H789.579V125.8H799.979V128.27H792.179V132.95H798.159ZM816.36 134.9C816.36 133.877 816.161 132.924 815.762 132.04C815.381 131.156 814.844 130.411 814.15 129.804C813.578 129.301 812.885 128.92 812.07 128.66C811.273 128.4 810.233 128.27 808.95 128.27H806.22V141.53H808.95C810.233 141.53 811.273 141.4 812.07 141.14C812.885 140.88 813.578 140.499 814.15 139.996C814.844 139.389 815.381 138.644 815.762 137.76C816.161 136.876 816.36 135.923 816.36 134.9ZM803.62 144V125.8H809.08C810.536 125.8 811.75 125.947 812.72 126.242C813.708 126.537 814.575 126.961 815.32 127.516C816.447 128.348 817.331 129.405 817.972 130.688C818.631 131.971 818.96 133.375 818.96 134.9C818.96 136.425 818.64 137.829 817.998 139.112C817.357 140.395 816.473 141.452 815.346 142.284C814.601 142.839 813.734 143.263 812.746 143.558C811.758 143.853 810.536 144 809.08 144H803.62Z" fill="#137FBF"/>
<path d="M212.05 132.95V135.42H206.07V144H203.47V125.8H213.87V128.27H206.07V132.95H212.05ZM224.004 144.26C222.877 144.26 221.828 144.052 220.858 143.636C219.887 143.203 219.055 142.613 218.362 141.868C217.772 141.227 217.304 140.473 216.958 139.606C216.628 138.739 216.464 137.691 216.464 136.46V125.8H219.064V136.59C219.064 137.457 219.159 138.176 219.35 138.748C219.558 139.303 219.844 139.779 220.208 140.178C220.658 140.681 221.204 141.079 221.846 141.374C222.504 141.651 223.224 141.79 224.004 141.79C224.784 141.79 225.494 141.651 226.136 141.374C226.794 141.079 227.349 140.681 227.8 140.178C228.164 139.779 228.441 139.303 228.632 138.748C228.84 138.176 228.944 137.457 228.944 136.59V125.8H231.544V136.46C231.544 137.691 231.37 138.739 231.024 139.606C230.694 140.473 230.235 141.227 229.646 141.868C228.952 142.613 228.12 143.203 227.15 143.636C226.179 144.052 225.13 144.26 224.004 144.26ZM238.57 130.636V144H235.97V125.8H237.79L248.71 139.164V125.8H251.31V144H249.49L238.57 130.636ZM268.718 134.9C268.718 133.877 268.518 132.924 268.12 132.04C267.738 131.156 267.201 130.411 266.508 129.804C265.936 129.301 265.242 128.92 264.428 128.66C263.63 128.4 262.59 128.27 261.308 128.27H258.578V141.53H261.308C262.59 141.53 263.63 141.4 264.428 141.14C265.242 140.88 265.936 140.499 266.508 139.996C267.201 139.389 267.738 138.644 268.12 137.76C268.518 136.876 268.718 135.923 268.718 134.9ZM255.978 144V125.8H261.438C262.894 125.8 264.107 125.947 265.078 126.242C266.066 126.537 266.932 126.961 267.678 127.516C268.804 128.348 269.688 129.405 270.33 130.688C270.988 131.971 271.318 133.375 271.318 134.9C271.318 136.425 270.997 137.829 270.356 139.112C269.714 140.395 268.83 141.452 267.704 142.284C266.958 142.839 266.092 143.263 265.104 143.558C264.116 143.853 262.894 144 261.438 144H255.978ZM274.671 139.45C275.208 140.109 275.849 140.663 276.595 141.114C277.34 141.565 278.181 141.79 279.117 141.79C279.533 141.79 279.931 141.729 280.313 141.608C280.711 141.469 281.049 141.279 281.327 141.036C281.621 140.793 281.855 140.507 282.029 140.178C282.202 139.849 282.289 139.476 282.289 139.06C282.289 138.367 282.072 137.812 281.639 137.396C281.223 136.963 280.694 136.59 280.053 136.278C279.429 135.966 278.753 135.671 278.025 135.394C277.297 135.117 276.629 134.779 276.023 134.38C275.364 133.947 274.809 133.409 274.359 132.768C273.925 132.127 273.709 131.329 273.709 130.376C273.709 129.717 273.847 129.093 274.125 128.504C274.402 127.915 274.783 127.403 275.269 126.97C275.771 126.519 276.352 126.173 277.011 125.93C277.687 125.67 278.423 125.54 279.221 125.54C279.793 125.54 280.321 125.601 280.807 125.722C281.309 125.826 281.76 125.973 282.159 126.164C282.575 126.337 282.939 126.528 283.251 126.736C283.58 126.944 283.866 127.152 284.109 127.36L282.575 129.258C281.587 128.426 280.503 128.01 279.325 128.01C278.943 128.01 278.571 128.062 278.207 128.166C277.86 128.27 277.539 128.426 277.245 128.634C276.967 128.842 276.742 129.102 276.569 129.414C276.395 129.709 276.309 130.055 276.309 130.454C276.309 131.026 276.517 131.503 276.933 131.884C277.366 132.265 277.895 132.612 278.519 132.924C279.16 133.219 279.836 133.513 280.547 133.808C281.275 134.103 281.933 134.441 282.523 134.822C282.835 135.03 283.129 135.264 283.407 135.524C283.684 135.784 283.935 136.087 284.161 136.434C284.386 136.763 284.559 137.145 284.681 137.578C284.819 137.994 284.889 138.462 284.889 138.982C284.889 139.779 284.741 140.507 284.447 141.166C284.152 141.807 283.753 142.362 283.251 142.83C282.748 143.281 282.15 143.636 281.457 143.896C280.781 144.139 280.044 144.26 279.247 144.26C277.999 144.26 276.829 144 275.737 143.48C274.645 142.96 273.691 142.206 272.877 141.218L274.671 139.45ZM297.882 135.42V144H295.282V125.8H301.652C302.484 125.8 303.178 125.895 303.732 126.086C304.287 126.259 304.772 126.519 305.188 126.866C305.743 127.317 306.176 127.863 306.488 128.504C306.818 129.145 306.982 129.847 306.982 130.61C306.982 131.373 306.818 132.075 306.488 132.716C306.176 133.357 305.743 133.903 305.188 134.354C304.894 134.597 304.573 134.796 304.226 134.952C303.897 135.108 303.507 135.229 303.056 135.316L309.582 144H306.436L299.962 135.42H297.882ZM301.522 132.95C302.112 132.95 302.571 132.889 302.9 132.768C303.23 132.647 303.498 132.482 303.706 132.274C304.157 131.823 304.382 131.269 304.382 130.61C304.382 130.281 304.322 129.977 304.2 129.7C304.079 129.405 303.914 129.154 303.706 128.946C303.498 128.738 303.23 128.573 302.9 128.452C302.571 128.331 302.112 128.27 301.522 128.27H297.882V132.95H301.522ZM322.356 139.32H314.686L312.788 144H310.084L317.624 125.8H319.444L326.984 144H324.28L322.356 139.32ZM315.726 136.85H321.342L318.534 130.09L315.726 136.85ZM329.458 125.8H332.058V144H329.458V125.8ZM336.979 139.45C337.517 140.109 338.158 140.663 338.903 141.114C339.649 141.565 340.489 141.79 341.425 141.79C341.841 141.79 342.24 141.729 342.621 141.608C343.02 141.469 343.358 141.279 343.635 141.036C343.93 140.793 344.164 140.507 344.337 140.178C344.511 139.849 344.597 139.476 344.597 139.06C344.597 138.367 344.381 137.812 343.947 137.396C343.531 136.963 343.003 136.59 342.361 136.278C341.737 135.966 341.061 135.671 340.333 135.394C339.605 135.117 338.938 134.779 338.331 134.38C337.673 133.947 337.118 133.409 336.667 132.768C336.234 132.127 336.017 131.329 336.017 130.376C336.017 129.717 336.156 129.093 336.433 128.504C336.711 127.915 337.092 127.403 337.577 126.97C338.08 126.519 338.661 126.173 339.319 125.93C339.995 125.67 340.732 125.54 341.529 125.54C342.101 125.54 342.63 125.601 343.115 125.722C343.618 125.826 344.069 125.973 344.467 126.164C344.883 126.337 345.247 126.528 345.559 126.736C345.889 126.944 346.175 127.152 346.417 127.36L344.883 129.258C343.895 128.426 342.812 128.01 341.633 128.01C341.252 128.01 340.879 128.062 340.515 128.166C340.169 128.27 339.848 128.426 339.553 128.634C339.276 128.842 339.051 129.102 338.877 129.414C338.704 129.709 338.617 130.055 338.617 130.454C338.617 131.026 338.825 131.503 339.241 131.884C339.675 132.265 340.203 132.612 340.827 132.924C341.469 133.219 342.145 133.513 342.855 133.808C343.583 134.103 344.242 134.441 344.831 134.822C345.143 135.03 345.438 135.264 345.715 135.524C345.993 135.784 346.244 136.087 346.469 136.434C346.695 136.763 346.868 137.145 346.989 137.578C347.128 137.994 347.197 138.462 347.197 138.982C347.197 139.779 347.05 140.507 346.755 141.166C346.461 141.807 346.062 142.362 345.559 142.83C345.057 143.281 344.459 143.636 343.765 143.896C343.089 144.139 342.353 144.26 341.555 144.26C340.307 144.26 339.137 144 338.045 143.48C336.953 142.96 336 142.206 335.185 141.218L336.979 139.45ZM359.163 132.95V135.42H353.183V141.53H361.243V144H350.583V125.8H360.983V128.27H353.183V132.95H359.163ZM377.364 134.9C377.364 133.877 377.165 132.924 376.766 132.04C376.385 131.156 375.848 130.411 375.154 129.804C374.582 129.301 373.889 128.92 373.074 128.66C372.277 128.4 371.237 128.27 369.954 128.27H367.224V141.53H369.954C371.237 141.53 372.277 141.4 373.074 141.14C373.889 140.88 374.582 140.499 375.154 139.996C375.848 139.389 376.385 138.644 376.766 137.76C377.165 136.876 377.364 135.923 377.364 134.9ZM364.624 144V125.8H370.084C371.54 125.8 372.754 125.947 373.724 126.242C374.712 126.537 375.579 126.961 376.324 127.516C377.451 128.348 378.335 129.405 378.976 130.688C379.635 131.971 379.964 133.375 379.964 134.9C379.964 136.425 379.644 137.829 379.002 139.112C378.361 140.395 377.477 141.452 376.35 142.284C375.605 142.839 374.738 143.263 373.75 143.558C372.762 143.853 371.54 144 370.084 144H364.624Z" fill="#137FBF"/>
<path d="M1085.87 208.797C1085.87 209.484 1085.16 209.828 1083.74 209.828H1080.84C1078.79 209.828 1077.77 209.599 1077.77 209.141C1077.77 208.797 1078.2 208.367 1079.05 207.852C1079.93 207.336 1080.47 206.656 1080.69 205.811C1081.06 204.321 1081.25 200.776 1081.25 195.176C1081.25 189.576 1081.13 186.231 1080.9 185.143C1080.69 184.054 1080.26 183.23 1079.61 182.672C1078.57 181.755 1078.04 181.283 1078.04 181.254C1078.04 180.624 1078.57 180.309 1079.61 180.309C1081.3 180.309 1082.57 180.466 1083.42 180.781C1084.26 181.082 1085.03 181.583 1085.74 182.285C1086.45 182.973 1089.14 186.453 1093.79 192.727C1098.46 199 1100.89 202.137 1101.08 202.137C1101.53 202.137 1101.76 199.437 1101.76 194.037L1101.81 191.975L1101.79 189.891C1101.79 186.711 1101.68 184.77 1101.46 184.068C1101.26 183.367 1100.82 182.779 1100.13 182.307C1099.44 181.834 1099.1 181.347 1099.1 180.846C1099.1 180.43 1100.15 180.223 1102.26 180.223H1103.29C1106.05 180.223 1107.44 180.466 1107.44 180.953C1107.44 181.426 1107.02 181.977 1106.19 182.607C1105.37 183.223 1104.87 184.154 1104.69 185.4C1104.41 187.248 1104.28 190.234 1104.28 194.359V202.115C1104.28 202.803 1104.28 203.49 1104.3 204.178L1104.36 206.24C1104.36 207.658 1104.26 208.568 1104.06 208.969C1103.86 209.37 1103.46 209.57 1102.86 209.57C1101.96 209.57 1100.73 208.611 1099.19 206.691C1098.51 205.861 1095.93 202.266 1091.45 195.906C1086.98 189.533 1084.48 186.346 1083.95 186.346C1083.67 186.346 1083.52 188.43 1083.52 192.598L1083.57 197.904C1083.57 201.771 1083.77 204.443 1084.17 205.918C1084.3 206.376 1084.52 206.842 1084.83 207.314L1085.24 207.852C1085.66 208.382 1085.87 208.697 1085.87 208.797ZM1116.76 197.818H1117.32L1121.42 197.539C1121.92 197.467 1122.29 197.432 1122.52 197.432C1123.46 197.432 1124.12 197.245 1124.49 196.873C1124.65 196.715 1124.73 196.343 1124.73 195.756C1124.73 194.395 1124.33 193.271 1123.53 192.383C1122.74 191.48 1121.79 191.029 1120.67 191.029H1120.24C1118.95 191.029 1117.8 191.588 1116.78 192.705C1115.78 193.822 1115.28 195.083 1115.28 196.486L1115.23 196.766V196.895C1115.23 197.453 1115.54 197.732 1116.14 197.732C1116.42 197.79 1116.63 197.818 1116.76 197.818ZM1115.11 201.428C1115.11 203.419 1115.74 204.987 1117.02 206.133C1118.29 207.279 1119.97 207.852 1122.04 207.852C1122.9 207.852 1124.04 207.529 1125.44 206.885C1126.84 206.24 1127.57 205.918 1127.61 205.918C1128.11 205.918 1128.36 206.154 1128.36 206.627C1128.36 207.515 1127.37 208.446 1125.38 209.42C1124.01 210.079 1122.56 210.408 1121.01 210.408H1120.52C1117.48 210.408 1115.11 209.463 1113.39 207.572C1111.67 205.667 1110.81 203.189 1110.81 200.139V199.645C1110.81 199.616 1110.81 199.58 1110.81 199.537C1110.81 198.277 1111.06 197.009 1111.56 195.734C1112.62 192.999 1114.3 191.115 1116.61 190.084C1118.06 189.439 1119.38 189.117 1120.58 189.117H1121.53C1123.41 189.117 1125.04 189.719 1126.43 190.922C1127.17 191.566 1127.75 192.383 1128.17 193.371C1128.58 194.359 1128.79 195.233 1128.79 195.992V196.443C1128.79 197.532 1128.35 198.262 1127.46 198.635C1126.94 198.85 1125.07 199.072 1121.83 199.301C1118.61 199.53 1116.8 199.702 1116.39 199.816C1115.54 200.06 1115.11 200.597 1115.11 201.428ZM1139.81 190.428C1139.81 190.628 1139.65 190.879 1139.32 191.18C1138.99 191.48 1138.82 191.831 1138.82 192.232C1138.82 192.619 1139.4 194.524 1140.56 197.947C1141.74 201.37 1142.48 203.44 1142.8 204.156C1143.13 204.858 1143.41 205.209 1143.66 205.209C1143.77 205.209 1144.14 204.557 1144.75 203.254C1147.15 198.227 1148.34 194.782 1148.34 192.92C1148.34 192.447 1148.09 191.932 1147.59 191.373C1147.09 190.8 1146.84 190.435 1146.84 190.277C1146.84 189.762 1148.12 189.504 1150.68 189.504H1151.2C1152.95 189.504 1153.82 189.783 1153.82 190.342C1153.82 190.771 1153.44 191.223 1152.68 191.695C1151.92 192.168 1151.39 192.684 1151.09 193.242C1150.96 193.471 1150.07 195.641 1148.41 199.752C1146.74 203.863 1145.54 206.641 1144.8 208.088C1144.07 209.535 1143.3 210.258 1142.5 210.258C1141.71 210.258 1140.94 209.484 1140.18 207.938C1139.42 206.391 1138.44 203.92 1137.26 200.525C1136.08 197.117 1135.12 194.717 1134.38 193.328C1133.98 192.583 1133.39 192.003 1132.62 191.588C1131.84 191.158 1131.46 190.736 1131.46 190.32C1131.46 189.805 1133.04 189.547 1136.22 189.547L1138.29 189.59C1139.3 189.59 1139.81 189.869 1139.81 190.428ZM1161.62 197.818H1162.18L1166.28 197.539C1166.78 197.467 1167.15 197.432 1167.38 197.432C1168.32 197.432 1168.98 197.245 1169.35 196.873C1169.51 196.715 1169.59 196.343 1169.59 195.756C1169.59 194.395 1169.19 193.271 1168.39 192.383C1167.6 191.48 1166.65 191.029 1165.53 191.029H1165.1C1163.81 191.029 1162.66 191.588 1161.64 192.705C1160.64 193.822 1160.14 195.083 1160.14 196.486L1160.09 196.766V196.895C1160.09 197.453 1160.39 197.732 1161 197.732C1161.28 197.79 1161.49 197.818 1161.62 197.818ZM1159.96 201.428C1159.96 203.419 1160.6 204.987 1161.88 206.133C1163.15 207.279 1164.83 207.852 1166.9 207.852C1167.76 207.852 1168.9 207.529 1170.3 206.885C1171.7 206.24 1172.43 205.918 1172.47 205.918C1172.97 205.918 1173.22 206.154 1173.22 206.627C1173.22 207.515 1172.23 208.446 1170.23 209.42C1168.87 210.079 1167.42 210.408 1165.87 210.408H1165.38C1162.34 210.408 1159.96 209.463 1158.25 207.572C1156.53 205.667 1155.67 203.189 1155.67 200.139V199.645C1155.67 199.616 1155.67 199.58 1155.67 199.537C1155.67 198.277 1155.92 197.009 1156.42 195.734C1157.48 192.999 1159.16 191.115 1161.47 190.084C1162.92 189.439 1164.24 189.117 1165.44 189.117H1166.39C1168.26 189.117 1169.9 189.719 1171.29 190.922C1172.03 191.566 1172.61 192.383 1173.03 193.371C1173.44 194.359 1173.65 195.233 1173.65 195.992V196.443C1173.65 197.532 1173.21 198.262 1172.32 198.635C1171.8 198.85 1169.93 199.072 1166.69 199.301C1163.47 199.53 1161.65 199.702 1161.25 199.816C1160.39 200.06 1159.96 200.597 1159.96 201.428ZM1186.99 207.873C1187.77 208.274 1188.15 208.732 1188.15 209.248C1188.15 209.764 1187.09 210.021 1184.97 210.021H1182.7L1181.79 209.979L1180.46 209.957C1178.76 209.957 1177.9 209.663 1177.9 209.076C1177.9 208.775 1178.25 208.432 1178.94 208.045C1179.62 207.644 1180.07 207.128 1180.29 206.498C1180.52 205.868 1180.63 203.748 1180.63 200.139C1180.63 196.515 1180.53 194.338 1180.31 193.607C1180.1 192.863 1179.66 192.297 1179 191.91C1178.36 191.523 1178.03 191.173 1178.03 190.857C1178.03 190.729 1178.14 190.585 1178.36 190.428C1179.19 189.812 1180.66 189.504 1182.78 189.504C1183.64 189.504 1184.22 189.819 1184.52 190.449C1185.02 191.495 1185.33 192.018 1185.45 192.018C1185.76 192.018 1186.16 191.824 1186.65 191.438C1188.2 190.206 1189.79 189.59 1191.42 189.59C1192.02 189.59 1192.56 189.84 1193.03 190.342C1193.5 190.829 1193.74 191.387 1193.74 192.018C1193.74 192.633 1193.57 193.128 1193.24 193.5C1192.91 193.858 1192.51 194.037 1192.02 194.037C1191.55 194.037 1191 193.837 1190.39 193.436C1189.77 193.035 1189.19 192.834 1188.65 192.834C1187.37 192.834 1186.35 193.772 1185.57 195.648C1185.12 196.794 1184.89 198.714 1184.89 201.406C1184.89 204.099 1185.04 205.753 1185.36 206.369C1185.67 206.971 1186.22 207.472 1186.99 207.873ZM1079.81 235.502C1079.81 231.807 1079.67 229.458 1079.4 228.455C1079.13 227.438 1078.7 226.629 1078.13 226.027C1077.57 225.411 1077.29 224.967 1077.29 224.695C1077.29 224.323 1078.45 224.137 1080.77 224.137C1083.11 224.137 1084.47 224.244 1084.86 224.459C1085.24 224.674 1085.44 225.01 1085.44 225.469C1085.44 225.698 1085.01 226.077 1084.17 226.607C1083.32 227.137 1082.8 227.739 1082.6 228.412C1082.4 229.085 1082.3 231.936 1082.3 236.963C1082.3 241.976 1082.22 245.055 1082.06 246.201C1081.9 247.347 1081.46 248.543 1080.73 249.789C1080.01 251.021 1078.88 252.074 1077.31 252.947C1075.77 253.807 1073.93 254.236 1071.79 254.236H1070.87C1066.39 254.236 1063.16 252.89 1061.2 250.197C1060.38 249.094 1059.87 247.949 1059.65 246.76C1059.44 245.557 1059.33 242.312 1059.33 237.027C1059.33 231.728 1059.17 228.605 1058.86 227.66C1058.7 227.173 1058.22 226.729 1057.42 226.328C1056.63 225.927 1056.24 225.505 1056.24 225.061C1056.24 224.416 1057.53 224.094 1060.13 224.094H1062.6C1064.98 224.094 1066.16 224.387 1066.16 224.975C1066.16 225.104 1065.84 225.462 1065.2 226.049C1064.55 226.636 1064.16 227.345 1064.02 228.176C1063.89 228.906 1063.82 231.234 1063.82 235.158C1063.82 235.545 1063.82 235.953 1063.82 236.383C1063.82 236.741 1063.82 237.092 1063.82 237.436C1063.82 241.489 1063.9 244.081 1064.06 245.213C1064.66 249.667 1067.39 251.895 1072.24 251.895C1075.32 251.895 1077.52 250.412 1078.84 247.447C1079.48 246.001 1079.81 242.155 1079.81 235.91C1079.81 235.781 1079.81 235.645 1079.81 235.502ZM1104.06 248.135V248.715C1104.06 249.417 1103.88 250.154 1103.5 250.928C1103.13 251.687 1102.57 252.331 1101.81 252.861C1100.39 253.864 1098.64 254.365 1096.56 254.365H1095.98C1093.29 254.365 1091.24 253.993 1089.82 253.248C1089.15 252.89 1088.81 252.031 1088.81 250.67V250.154C1088.81 248.679 1089.2 247.941 1089.99 247.941C1090.36 247.941 1090.85 248.45 1091.45 249.467C1092.05 250.469 1092.57 251.143 1093 251.486C1093.86 252.174 1094.98 252.518 1096.37 252.518C1097.76 252.518 1098.78 252.217 1099.42 251.615C1100.08 251.014 1100.41 250.269 1100.41 249.381C1100.41 248.479 1099.97 247.684 1099.08 246.996C1098.53 246.581 1097.19 245.922 1095.06 245.02C1092.94 244.103 1091.44 243.201 1090.57 242.312C1089.71 241.41 1089.28 240.186 1089.28 238.639C1089.28 237.092 1089.95 235.788 1091.28 234.729C1092.61 233.669 1094.3 233.139 1096.35 233.139H1096.93C1099.59 233.139 1101.45 233.475 1102.49 234.148C1102.97 234.449 1103.2 235.18 1103.2 236.34C1103.2 238.03 1102.78 238.875 1101.94 238.875C1101.65 238.875 1101.23 238.438 1100.67 237.564C1100.11 236.691 1099.53 236.046 1098.93 235.631C1098.34 235.215 1097.48 235.008 1096.35 235.008C1095.23 235.008 1094.36 235.266 1093.73 235.781C1093.11 236.297 1092.8 236.999 1092.8 237.887C1092.8 238.775 1093.31 239.562 1094.31 240.25C1094.88 240.637 1096.12 241.224 1098.03 242.012C1099.94 242.785 1101.36 243.566 1102.26 244.354C1103.46 245.399 1104.06 246.66 1104.06 248.135ZM1113.56 241.818H1114.12L1118.22 241.539C1118.72 241.467 1119.09 241.432 1119.32 241.432C1120.26 241.432 1120.92 241.245 1121.29 240.873C1121.45 240.715 1121.53 240.343 1121.53 239.756C1121.53 238.395 1121.13 237.271 1120.33 236.383C1119.54 235.48 1118.59 235.029 1117.47 235.029H1117.04C1115.75 235.029 1114.6 235.588 1113.58 236.705C1112.58 237.822 1112.08 239.083 1112.08 240.486L1112.03 240.766V240.895C1112.03 241.453 1112.33 241.732 1112.94 241.732C1113.22 241.79 1113.43 241.818 1113.56 241.818ZM1111.9 245.428C1111.9 247.419 1112.54 248.987 1113.82 250.133C1115.09 251.279 1116.77 251.852 1118.84 251.852C1119.7 251.852 1120.83 251.529 1122.24 250.885C1123.64 250.24 1124.37 249.918 1124.41 249.918C1124.91 249.918 1125.16 250.154 1125.16 250.627C1125.16 251.515 1124.16 252.446 1122.17 253.42C1120.81 254.079 1119.36 254.408 1117.81 254.408H1117.32C1114.28 254.408 1111.9 253.463 1110.19 251.572C1108.47 249.667 1107.61 247.189 1107.61 244.139V243.645C1107.61 243.616 1107.61 243.58 1107.61 243.537C1107.61 242.277 1107.86 241.009 1108.36 239.734C1109.42 236.999 1111.1 235.115 1113.41 234.084C1114.85 233.439 1116.18 233.117 1117.38 233.117H1118.33C1120.2 233.117 1121.84 233.719 1123.23 234.922C1123.97 235.566 1124.55 236.383 1124.97 237.371C1125.38 238.359 1125.59 239.233 1125.59 239.992V240.443C1125.59 241.532 1125.15 242.262 1124.26 242.635C1123.74 242.85 1121.87 243.072 1118.63 243.301C1115.41 243.53 1113.59 243.702 1113.19 243.816C1112.33 244.06 1111.9 244.597 1111.9 245.428ZM1141.25 229.4C1141.25 229.4 1141.27 229.135 1141.29 228.605C1141.29 227.331 1141.85 226.013 1142.97 224.652C1144.09 223.277 1145.12 222.59 1146.06 222.59C1146.49 222.59 1146.71 222.855 1146.71 223.385C1146.72 223.571 1146.54 223.85 1146.17 224.223C1145.05 225.34 1144.49 226.421 1144.47 227.467C1144.47 227.868 1144.91 228.419 1145.79 229.121C1146.67 229.823 1147.12 230.496 1147.12 231.141V231.441C1147.12 232.086 1146.85 232.623 1146.32 233.053C1145.79 233.482 1145.23 233.697 1144.62 233.697H1144.3C1143.39 233.697 1142.64 233.354 1142.07 232.666C1141.51 231.979 1141.23 230.997 1141.23 229.723V229.572L1141.25 229.4ZM1152.53 224.932C1152.53 224.531 1153.13 224.266 1154.34 224.137C1154.89 224.079 1157.96 224.051 1163.53 224.051L1169.93 224.029C1171.28 224.029 1172.25 224.359 1172.86 225.018C1173.47 225.662 1173.78 226.794 1173.78 228.412C1173.78 229.114 1173.62 229.465 1173.31 229.465C1173.18 229.465 1172.79 229.171 1172.15 228.584C1171.52 227.997 1170.91 227.624 1170.32 227.467C1168.39 226.923 1166.24 226.65 1163.88 226.65C1162.63 226.65 1161.71 227.295 1161.12 228.584C1160.54 229.873 1160.24 231.613 1160.24 233.805C1160.24 235.051 1160.62 235.932 1161.36 236.447C1162.12 236.949 1163.23 237.199 1164.69 237.199C1165.24 237.199 1165.92 236.891 1166.73 236.275C1167.55 235.645 1168.12 235.33 1168.45 235.33C1168.78 235.33 1169.1 235.574 1169.42 236.061C1169.75 236.548 1169.91 237.493 1169.91 238.896C1169.91 240.3 1169.68 241.231 1169.22 241.689L1168.69 241.947C1168.43 241.947 1167.66 241.489 1166.39 240.572C1165.72 240.085 1164.7 239.842 1163.34 239.842C1161.98 239.842 1161.02 240.264 1160.46 241.109C1160.09 241.668 1159.9 243.115 1159.9 245.449C1159.9 247.77 1160.29 249.452 1161.06 250.498C1161.53 251.128 1162.89 251.443 1165.14 251.443C1167.39 251.443 1169.08 251.221 1170.21 250.777C1171.36 250.333 1172.31 249.76 1173.07 249.059C1173.83 248.342 1174.3 247.984 1174.49 247.984C1174.77 247.984 1174.92 248.214 1174.92 248.672C1174.92 251.236 1174.39 252.861 1173.33 253.549C1172.83 253.878 1170.47 254.043 1166.26 254.043H1162.46C1157.54 254.043 1154.64 253.993 1153.73 253.893C1152.85 253.792 1152.4 253.549 1152.4 253.162C1152.4 252.761 1152.75 252.331 1153.43 251.873C1154.12 251.4 1154.56 250.885 1154.74 250.326C1155.09 249.309 1155.26 245.965 1155.26 240.293L1155.35 231.871C1155.35 229.465 1155.26 227.997 1155.09 227.467C1154.92 226.923 1154.44 226.493 1153.67 226.178C1152.91 225.863 1152.53 225.447 1152.53 224.932ZM1194.51 250.283C1194.6 249.753 1194.64 247.812 1194.64 244.461C1194.64 241.095 1194.45 238.932 1194.08 237.973C1193.6 236.698 1192.71 236.061 1191.42 236.061C1190.14 236.061 1189.02 236.433 1188.04 237.178C1187.09 237.908 1186.45 238.746 1186.13 239.691C1185.83 240.622 1185.68 243.902 1185.68 249.531C1185.68 250.419 1185.93 251.207 1186.41 251.895C1186.9 252.582 1187.14 253.026 1187.14 253.227C1187.14 253.642 1186.17 253.85 1184.22 253.85C1182.29 253.85 1180.91 253.685 1180.1 253.355C1179.72 253.198 1179.54 252.933 1179.54 252.561C1179.54 252.475 1179.79 252.167 1180.29 251.637C1180.79 251.107 1181.14 250.605 1181.34 250.133C1181.54 249.646 1181.64 248.428 1181.64 246.48L1181.62 245.471L1181.54 243.451C1181.51 242.577 1181.49 241.382 1181.49 239.863C1181.49 238.345 1181.41 237.421 1181.26 237.092C1181.1 236.748 1180.79 236.354 1180.33 235.91C1179.89 235.452 1179.67 235.101 1179.67 234.857L1179.97 234.406C1180.55 233.919 1181.57 233.676 1183.02 233.676C1183.86 233.676 1184.56 233.998 1185.12 234.643C1185.68 235.273 1186.08 235.588 1186.33 235.588L1186.97 235.266L1188.58 234.277C1189.94 233.518 1191.22 233.139 1192.43 233.139C1193.65 233.139 1194.57 233.282 1195.2 233.568C1195.84 233.855 1196.54 234.32 1197.28 234.965C1198.03 235.595 1198.57 235.91 1198.89 235.91L1199.6 235.523L1200.4 235.008C1201.42 234.363 1202.3 233.912 1203.06 233.654C1203.84 233.396 1204.75 233.268 1205.81 233.268C1206.89 233.268 1207.84 233.525 1208.67 234.041C1209.51 234.557 1210.16 235.251 1210.6 236.125C1211.29 237.5 1211.63 240.866 1211.63 246.223C1211.63 248.5 1211.7 249.875 1211.83 250.348C1211.97 250.82 1212.37 251.329 1213.01 251.873C1213.65 252.403 1213.98 252.79 1213.98 253.033C1213.98 253.606 1212.11 253.893 1208.37 253.893C1207.08 253.893 1206.44 253.714 1206.44 253.355C1206.44 253.198 1206.62 252.761 1206.99 252.045C1207.37 251.314 1207.55 250.462 1207.55 249.488C1207.55 243.286 1207.34 239.641 1206.91 238.553C1206.48 237.45 1205.89 236.719 1205.15 236.361C1204.69 236.146 1204.06 236.039 1203.26 236.039C1202.45 236.039 1201.63 236.333 1200.79 236.92C1199.95 237.493 1199.42 238.188 1199.17 239.004C1198.93 239.82 1198.81 241.954 1198.81 245.406C1198.81 248.844 1198.92 250.763 1199.15 251.164C1199.22 251.293 1199.57 251.565 1200.18 251.98C1200.8 252.396 1201.11 252.804 1201.11 253.205C1201.11 253.749 1198.99 254.021 1194.77 254.021C1193.18 254.021 1192.38 253.814 1192.38 253.398C1192.38 252.983 1192.6 252.589 1193.03 252.217C1193.93 251.443 1194.43 250.799 1194.51 250.283Z" fill="#230F2C"/>
<path d="M1001.39 125.8H1013.87V128.27H1008.93V144H1006.33V128.27H1001.39V125.8ZM1019.19 135.42V144H1016.59V125.8H1022.96C1023.8 125.8 1024.49 125.895 1025.04 126.086C1025.6 126.259 1026.08 126.519 1026.5 126.866C1027.06 127.317 1027.49 127.863 1027.8 128.504C1028.13 129.145 1028.29 129.847 1028.29 130.61C1028.29 131.373 1028.13 132.075 1027.8 132.716C1027.49 133.357 1027.06 133.903 1026.5 134.354C1026.21 134.597 1025.89 134.796 1025.54 134.952C1025.21 135.108 1024.82 135.229 1024.37 135.316L1030.89 144H1027.75L1021.27 135.42H1019.19ZM1022.83 132.95C1023.42 132.95 1023.88 132.889 1024.21 132.768C1024.54 132.647 1024.81 132.482 1025.02 132.274C1025.47 131.823 1025.69 131.269 1025.69 130.61C1025.69 130.281 1025.63 129.977 1025.51 129.7C1025.39 129.405 1025.23 129.154 1025.02 128.946C1024.81 128.738 1024.54 128.573 1024.21 128.452C1023.88 128.331 1023.42 128.27 1022.83 128.27H1019.19V132.95H1022.83ZM1043.67 139.32H1036L1034.1 144H1031.4L1038.94 125.8H1040.76L1048.3 144H1045.59L1043.67 139.32ZM1037.04 136.85H1042.65L1039.85 130.09L1037.04 136.85ZM1053.37 130.636V144H1050.77V125.8H1052.59L1063.51 139.164V125.8H1066.11V144H1064.29L1053.37 130.636ZM1071.01 139.45C1071.55 140.109 1072.19 140.663 1072.94 141.114C1073.68 141.565 1074.52 141.79 1075.46 141.79C1075.87 141.79 1076.27 141.729 1076.65 141.608C1077.05 141.469 1077.39 141.279 1077.67 141.036C1077.96 140.793 1078.2 140.507 1078.37 140.178C1078.54 139.849 1078.63 139.476 1078.63 139.06C1078.63 138.367 1078.41 137.812 1077.98 137.396C1077.56 136.963 1077.04 136.59 1076.39 136.278C1075.77 135.966 1075.09 135.671 1074.37 135.394C1073.64 135.117 1072.97 134.779 1072.36 134.38C1071.71 133.947 1071.15 133.409 1070.7 132.768C1070.27 132.127 1070.05 131.329 1070.05 130.376C1070.05 129.717 1070.19 129.093 1070.47 128.504C1070.74 127.915 1071.13 127.403 1071.61 126.97C1072.11 126.519 1072.69 126.173 1073.35 125.93C1074.03 125.67 1074.77 125.54 1075.56 125.54C1076.13 125.54 1076.66 125.601 1077.15 125.722C1077.65 125.826 1078.1 125.973 1078.5 126.164C1078.92 126.337 1079.28 126.528 1079.59 126.736C1079.92 126.944 1080.21 127.152 1080.45 127.36L1078.92 129.258C1077.93 128.426 1076.85 128.01 1075.67 128.01C1075.29 128.01 1074.91 128.062 1074.55 128.166C1074.2 128.27 1073.88 128.426 1073.59 128.634C1073.31 128.842 1073.08 129.102 1072.91 129.414C1072.74 129.709 1072.65 130.055 1072.65 130.454C1072.65 131.026 1072.86 131.503 1073.27 131.884C1073.71 132.265 1074.24 132.612 1074.86 132.924C1075.5 133.219 1076.18 133.513 1076.89 133.808C1077.62 134.103 1078.28 134.441 1078.86 134.822C1079.18 135.03 1079.47 135.264 1079.75 135.524C1080.03 135.784 1080.28 136.087 1080.5 136.434C1080.73 136.763 1080.9 137.145 1081.02 137.578C1081.16 137.994 1081.23 138.462 1081.23 138.982C1081.23 139.779 1081.08 140.507 1080.79 141.166C1080.49 141.807 1080.1 142.362 1079.59 142.83C1079.09 143.281 1078.49 143.636 1077.8 143.896C1077.12 144.139 1076.39 144.26 1075.59 144.26C1074.34 144.26 1073.17 144 1072.08 143.48C1070.99 142.96 1070.03 142.206 1069.22 141.218L1071.01 139.45ZM1084.62 125.8H1087.22V144H1084.62V125.8ZM1089.95 125.8H1102.43V128.27H1097.49V144H1094.89V128.27H1089.95V125.8ZM1105.16 125.8H1107.76V144H1105.16V125.8ZM1111.01 134.9C1111.01 133.583 1111.25 132.352 1111.72 131.208C1112.18 130.064 1112.83 129.076 1113.64 128.244C1114.46 127.395 1115.42 126.736 1116.53 126.268C1117.64 125.783 1118.83 125.54 1120.11 125.54C1121.4 125.54 1122.59 125.783 1123.7 126.268C1124.81 126.736 1125.77 127.395 1126.59 128.244C1127.4 129.076 1128.04 130.064 1128.51 131.208C1128.98 132.352 1129.21 133.583 1129.21 134.9C1129.21 136.235 1128.98 137.474 1128.51 138.618C1128.04 139.745 1127.4 140.733 1126.59 141.582C1125.77 142.414 1124.81 143.073 1123.7 143.558C1122.59 144.026 1121.4 144.26 1120.11 144.26C1118.83 144.26 1117.64 144.026 1116.53 143.558C1115.42 143.073 1114.46 142.414 1113.64 141.582C1112.83 140.733 1112.18 139.745 1111.72 138.618C1111.25 137.474 1111.01 136.235 1111.01 134.9ZM1113.61 134.9C1113.61 135.888 1113.78 136.807 1114.11 137.656C1114.44 138.488 1114.89 139.216 1115.46 139.84C1116.05 140.447 1116.73 140.923 1117.51 141.27C1118.31 141.617 1119.18 141.79 1120.11 141.79C1121.05 141.79 1121.91 141.617 1122.69 141.27C1123.49 140.923 1124.17 140.447 1124.74 139.84C1125.33 139.216 1125.79 138.488 1126.12 137.656C1126.45 136.807 1126.61 135.888 1126.61 134.9C1126.61 133.912 1126.45 133.002 1126.12 132.17C1125.79 131.321 1125.33 130.593 1124.74 129.986C1124.17 129.362 1123.49 128.877 1122.69 128.53C1121.91 128.183 1121.05 128.01 1120.11 128.01C1119.18 128.01 1118.31 128.183 1117.51 128.53C1116.73 128.877 1116.05 129.362 1115.46 129.986C1114.89 130.593 1114.44 131.321 1114.11 132.17C1113.78 133.002 1113.61 133.912 1113.61 134.9ZM1135.05 130.636V144H1132.45V125.8H1134.27L1145.19 139.164V125.8H1147.79V144H1145.97L1135.05 130.636ZM1168.05 132.95V135.42H1162.07V141.53H1170.13V144H1159.47V125.8H1169.87V128.27H1162.07V132.95H1168.05ZM1182.09 132.95V135.42H1176.11V144H1173.51V125.8H1183.91V128.27H1176.11V132.95H1182.09ZM1195.34 132.95V135.42H1189.36V144H1186.76V125.8H1197.16V128.27H1189.36V132.95H1195.34ZM1208.6 132.95V135.42H1202.62V141.53H1210.68V144H1200.02V125.8H1210.42V128.27H1202.62V132.95H1208.6ZM1212.12 134.9C1212.12 133.583 1212.35 132.361 1212.82 131.234C1213.29 130.09 1213.93 129.102 1214.75 128.27C1215.58 127.421 1216.55 126.753 1217.66 126.268C1218.78 125.783 1220.01 125.54 1221.32 125.54C1222.62 125.54 1223.85 125.791 1225.02 126.294C1226.19 126.779 1227.18 127.464 1227.98 128.348L1226.24 130.064C1225.7 129.475 1224.99 128.989 1224.11 128.608C1223.24 128.209 1222.31 128.01 1221.32 128.01C1220.39 128.01 1219.52 128.183 1218.72 128.53C1217.93 128.877 1217.22 129.362 1216.62 129.986C1216.03 130.593 1215.56 131.321 1215.21 132.17C1214.88 133.002 1214.72 133.912 1214.72 134.9C1214.72 135.923 1214.89 136.859 1215.24 137.708C1215.59 138.557 1216.06 139.285 1216.67 139.892C1217.29 140.499 1218.02 140.967 1218.85 141.296C1219.69 141.625 1220.59 141.79 1221.56 141.79C1222.16 141.79 1222.73 141.712 1223.25 141.556C1223.79 141.4 1224.27 141.201 1224.7 140.958C1225.14 140.715 1225.53 140.447 1225.87 140.152C1226.22 139.84 1226.52 139.528 1226.78 139.216L1228.63 140.88C1228.23 141.383 1227.77 141.842 1227.25 142.258C1226.73 142.674 1226.17 143.029 1225.56 143.324C1224.96 143.619 1224.31 143.844 1223.61 144C1222.94 144.173 1222.25 144.26 1221.56 144.26C1220.21 144.26 1218.95 144.026 1217.79 143.558C1216.64 143.09 1215.65 142.44 1214.8 141.608C1213.97 140.776 1213.31 139.788 1212.82 138.644C1212.35 137.5 1212.12 136.252 1212.12 134.9ZM1229.55 125.8H1242.03V128.27H1237.09V144H1234.49V128.27H1229.55V125.8ZM1244.74 139.45C1245.27 140.109 1245.91 140.663 1246.66 141.114C1247.4 141.565 1248.25 141.79 1249.18 141.79C1249.6 141.79 1250 141.729 1250.38 141.608C1250.78 141.469 1251.11 141.279 1251.39 141.036C1251.69 140.793 1251.92 140.507 1252.09 140.178C1252.27 139.849 1252.35 139.476 1252.35 139.06C1252.35 138.367 1252.14 137.812 1251.7 137.396C1251.29 136.963 1250.76 136.59 1250.12 136.278C1249.49 135.966 1248.82 135.671 1248.09 135.394C1247.36 135.117 1246.69 134.779 1246.09 134.38C1245.43 133.947 1244.87 133.409 1244.42 132.768C1243.99 132.127 1243.77 131.329 1243.77 130.376C1243.77 129.717 1243.91 129.093 1244.19 128.504C1244.47 127.915 1244.85 127.403 1245.33 126.97C1245.84 126.519 1246.42 126.173 1247.08 125.93C1247.75 125.67 1248.49 125.54 1249.29 125.54C1249.86 125.54 1250.39 125.601 1250.87 125.722C1251.37 125.826 1251.82 125.973 1252.22 126.164C1252.64 126.337 1253 126.528 1253.32 126.736C1253.64 126.944 1253.93 127.152 1254.17 127.36L1252.64 129.258C1251.65 128.426 1250.57 128.01 1249.39 128.01C1249.01 128.01 1248.64 128.062 1248.27 128.166C1247.92 128.27 1247.6 128.426 1247.31 128.634C1247.03 128.842 1246.81 129.102 1246.63 129.414C1246.46 129.709 1246.37 130.055 1246.37 130.454C1246.37 131.026 1246.58 131.503 1247 131.884C1247.43 132.265 1247.96 132.612 1248.58 132.924C1249.22 133.219 1249.9 133.513 1250.61 133.808C1251.34 134.103 1252 134.441 1252.59 134.822C1252.9 135.03 1253.19 135.264 1253.47 135.524C1253.75 135.784 1254 136.087 1254.23 136.434C1254.45 136.763 1254.62 137.145 1254.75 137.578C1254.88 137.994 1254.95 138.462 1254.95 138.982C1254.95 139.779 1254.81 140.507 1254.51 141.166C1254.22 141.807 1253.82 142.362 1253.32 142.83C1252.81 143.281 1252.21 143.636 1251.52 143.896C1250.85 144.139 1250.11 144.26 1249.31 144.26C1248.06 144.26 1246.89 144 1245.8 143.48C1244.71 142.96 1243.76 142.206 1242.94 141.218L1244.74 139.45Z" fill="#137FBF"/>
</svg>
